<svg width="335" height="42" viewBox="0 0 335 42" fill="none" xmlns="http://www.w3.org/2000/svg">
<rect width="335" height="42" rx="5" fill="#000"/>
<path d="M120.95 23.9H117.618L117.142 26H115.21L117.548 16.2H121.02L123.358 26H121.426L120.95 23.9ZM118.01 22.136H120.544L119.41 17.124H119.158L118.01 22.136ZM130.348 24.992H130.096C130.022 25.1507 129.928 25.3047 129.816 25.454C129.714 25.594 129.574 25.72 129.396 25.832C129.228 25.944 129.023 26.0327 128.78 26.098C128.547 26.1633 128.262 26.196 127.926 26.196C127.497 26.196 127.096 26.1213 126.722 25.972C126.358 25.8133 126.036 25.5847 125.756 25.286C125.486 24.978 125.271 24.6047 125.112 24.166C124.963 23.7273 124.888 23.2233 124.888 22.654V22.402C124.888 21.842 124.968 21.3427 125.126 20.904C125.294 20.4653 125.518 20.0967 125.798 19.798C126.088 19.49 126.419 19.2567 126.792 19.098C127.175 18.9393 127.576 18.86 127.996 18.86C128.556 18.86 129 18.9673 129.326 19.182C129.653 19.3873 129.91 19.6813 130.096 20.064H130.348V16.2H132.112V26H130.348V24.992ZM128.5 24.516C129.051 24.516 129.494 24.3433 129.83 23.998C130.176 23.6433 130.348 23.1813 130.348 22.612V22.444C130.348 21.8747 130.176 21.4173 129.83 21.072C129.494 20.7173 129.051 20.54 128.5 20.54C127.95 20.54 127.502 20.7127 127.156 21.058C126.82 21.394 126.652 21.856 126.652 22.444V22.612C126.652 23.2 126.82 23.6667 127.156 24.012C127.502 24.348 127.95 24.516 128.5 24.516ZM139.621 24.992H139.369C139.294 25.1507 139.201 25.3047 139.089 25.454C138.986 25.594 138.846 25.72 138.669 25.832C138.501 25.944 138.295 26.0327 138.053 26.098C137.819 26.1633 137.535 26.196 137.199 26.196C136.769 26.196 136.368 26.1213 135.995 25.972C135.631 25.8133 135.309 25.5847 135.029 25.286C134.758 24.978 134.543 24.6047 134.385 24.166C134.235 23.7273 134.161 23.2233 134.161 22.654V22.402C134.161 21.842 134.24 21.3427 134.399 20.904C134.567 20.4653 134.791 20.0967 135.071 19.798C135.36 19.49 135.691 19.2567 136.065 19.098C136.447 18.9393 136.849 18.86 137.269 18.86C137.829 18.86 138.272 18.9673 138.599 19.182C138.925 19.3873 139.182 19.6813 139.369 20.064H139.621V16.2H141.385V26H139.621V24.992ZM137.773 24.516C138.323 24.516 138.767 24.3433 139.103 23.998C139.448 23.6433 139.621 23.1813 139.621 22.612V22.444C139.621 21.8747 139.448 21.4173 139.103 21.072C138.767 20.7173 138.323 20.54 137.773 20.54C137.222 20.54 136.774 20.7127 136.429 21.058C136.093 21.394 135.925 21.856 135.925 22.444V22.612C135.925 23.2 136.093 23.6667 136.429 24.012C136.774 24.348 137.222 24.516 137.773 24.516ZM152.985 19.056H155.043V16.2H156.807V19.056H159.313V20.736H156.807V23.9C156.807 24.18 156.933 24.32 157.185 24.32H159.061V26H156.121C155.804 26 155.542 25.8973 155.337 25.692C155.141 25.4867 155.043 25.2253 155.043 24.908V20.736H152.985V19.056ZM169.257 22.612C169.257 23.1907 169.159 23.704 168.963 24.152C168.767 24.5907 168.501 24.964 168.165 25.272C167.829 25.5707 167.442 25.7993 167.003 25.958C166.574 26.1167 166.121 26.196 165.645 26.196C165.169 26.196 164.712 26.1167 164.273 25.958C163.844 25.7993 163.461 25.5707 163.125 25.272C162.789 24.964 162.523 24.5907 162.327 24.152C162.131 23.704 162.033 23.1907 162.033 22.612V22.444C162.033 21.8747 162.131 21.3707 162.327 20.932C162.523 20.484 162.789 20.106 163.125 19.798C163.461 19.49 163.844 19.2567 164.273 19.098C164.712 18.9393 165.169 18.86 165.645 18.86C166.121 18.86 166.574 18.9393 167.003 19.098C167.442 19.2567 167.829 19.49 168.165 19.798C168.501 20.106 168.767 20.484 168.963 20.932C169.159 21.3707 169.257 21.8747 169.257 22.444V22.612ZM165.645 24.516C165.897 24.516 166.135 24.474 166.359 24.39C166.583 24.306 166.779 24.1847 166.947 24.026C167.115 23.8673 167.246 23.676 167.339 23.452C167.442 23.2187 167.493 22.9573 167.493 22.668V22.388C167.493 22.0987 167.442 21.842 167.339 21.618C167.246 21.3847 167.115 21.1887 166.947 21.03C166.779 20.8713 166.583 20.75 166.359 20.666C166.135 20.582 165.897 20.54 165.645 20.54C165.393 20.54 165.155 20.582 164.931 20.666C164.707 20.75 164.511 20.8713 164.343 21.03C164.175 21.1887 164.04 21.3847 163.937 21.618C163.844 21.842 163.797 22.0987 163.797 22.388V22.668C163.797 22.9573 163.844 23.2187 163.937 23.452C164.04 23.676 164.175 23.8673 164.343 24.026C164.511 24.1847 164.707 24.306 164.931 24.39C165.155 24.474 165.393 24.516 165.645 24.516ZM184.218 24.516C184.573 24.516 184.862 24.4647 185.086 24.362C185.319 24.25 185.497 24.1053 185.618 23.928C185.749 23.7413 185.837 23.5313 185.884 23.298C185.931 23.0553 185.954 22.808 185.954 22.556V22.304H187.802V22.556C187.802 23.7227 187.494 24.6233 186.878 25.258C186.271 25.8833 185.385 26.196 184.218 26.196C183.098 26.196 182.211 25.8553 181.558 25.174C180.905 24.4927 180.578 23.4987 180.578 22.192V20.008C180.578 19.3827 180.662 18.8227 180.83 18.328C180.998 17.824 181.241 17.404 181.558 17.068C181.875 16.7227 182.258 16.4613 182.706 16.284C183.154 16.0973 183.658 16.004 184.218 16.004C184.797 16.004 185.31 16.088 185.758 16.256C186.206 16.424 186.579 16.6667 186.878 16.984C187.186 17.3013 187.415 17.684 187.564 18.132C187.723 18.58 187.802 19.084 187.802 19.644V19.896H185.954V19.644C185.954 19.4107 185.926 19.1773 185.87 18.944C185.814 18.7107 185.721 18.5007 185.59 18.314C185.459 18.1273 185.282 17.978 185.058 17.866C184.834 17.7447 184.554 17.684 184.218 17.684C183.91 17.684 183.644 17.7447 183.42 17.866C183.196 17.978 183.009 18.1367 182.86 18.342C182.711 18.538 182.599 18.7713 182.524 19.042C182.459 19.3033 182.426 19.5787 182.426 19.868V22.332C182.426 22.6493 182.459 22.9433 182.524 23.214C182.589 23.4753 182.692 23.704 182.832 23.9C182.972 24.096 183.154 24.25 183.378 24.362C183.611 24.4647 183.891 24.516 184.218 24.516ZM194.764 24.992C194.577 25.4307 194.316 25.7433 193.98 25.93C193.644 26.1073 193.252 26.196 192.804 26.196C192.384 26.196 191.987 26.1167 191.614 25.958C191.25 25.7993 190.928 25.566 190.648 25.258C190.368 24.95 190.144 24.5767 189.976 24.138C189.817 23.6993 189.738 23.2 189.738 22.64V22.416C189.738 21.8653 189.817 21.3707 189.976 20.932C190.135 20.4933 190.349 20.12 190.62 19.812C190.891 19.504 191.203 19.2707 191.558 19.112C191.922 18.944 192.309 18.86 192.72 18.86C193.215 18.86 193.611 18.944 193.91 19.112C194.218 19.28 194.461 19.5413 194.638 19.896H194.89V19.056H196.654V23.9C196.654 24.18 196.78 24.32 197.032 24.32H197.298V26H196.094C195.777 26 195.515 25.9067 195.31 25.72C195.114 25.5333 195.016 25.2907 195.016 24.992H194.764ZM193.196 24.516C193.709 24.516 194.12 24.348 194.428 24.012C194.736 23.6667 194.89 23.2 194.89 22.612V22.444C194.89 21.856 194.736 21.394 194.428 21.058C194.12 20.7127 193.709 20.54 193.196 20.54C192.683 20.54 192.272 20.7127 191.964 21.058C191.656 21.394 191.502 21.856 191.502 22.444V22.612C191.502 23.2 191.656 23.6667 191.964 24.012C192.272 24.348 192.683 24.516 193.196 24.516ZM199.5 24.32H201.936V17.88H199.584V16.2H203.7V24.32H205.968V26H199.5V24.32ZM210.369 23.102C210.378 23.3073 210.425 23.4987 210.509 23.676C210.602 23.844 210.723 23.9933 210.873 24.124C211.031 24.2453 211.209 24.3433 211.405 24.418C211.61 24.4833 211.825 24.516 212.049 24.516C212.487 24.516 212.823 24.4413 213.057 24.292C213.29 24.1333 213.458 23.9467 213.561 23.732L215.073 24.572C214.989 24.7493 214.872 24.936 214.723 25.132C214.573 25.3187 214.377 25.4913 214.135 25.65C213.901 25.8087 213.612 25.9393 213.267 26.042C212.931 26.1447 212.534 26.196 212.077 26.196C211.554 26.196 211.078 26.112 210.649 25.944C210.219 25.776 209.846 25.5333 209.529 25.216C209.221 24.8987 208.978 24.5113 208.801 24.054C208.633 23.5967 208.549 23.0787 208.549 22.5V22.416C208.549 21.884 208.637 21.3987 208.815 20.96C209.001 20.5213 209.253 20.148 209.571 19.84C209.888 19.532 210.257 19.294 210.677 19.126C211.106 18.9487 211.563 18.86 212.049 18.86C212.646 18.86 213.159 18.9673 213.589 19.182C214.018 19.3873 214.373 19.6533 214.653 19.98C214.933 20.2973 215.138 20.652 215.269 21.044C215.399 21.4267 215.465 21.8 215.465 22.164V23.102H210.369ZM212.035 20.456C211.587 20.456 211.223 20.5727 210.943 20.806C210.663 21.03 210.481 21.2913 210.397 21.59H213.673C213.617 21.2633 213.439 20.9927 213.141 20.778C212.851 20.5633 212.483 20.456 212.035 20.456ZM219.851 26H218.087V19.056H219.851V20.092H220.103C220.262 19.7 220.518 19.3967 220.873 19.182C221.228 18.9673 221.643 18.86 222.119 18.86C222.455 18.86 222.768 18.916 223.057 19.028C223.356 19.1307 223.617 19.294 223.841 19.518C224.065 19.742 224.238 20.0267 224.359 20.372C224.49 20.7173 224.555 21.128 224.555 21.604V26H222.791V22.052C222.791 21.5573 222.67 21.17 222.427 20.89C222.194 20.6007 221.853 20.456 221.405 20.456C220.882 20.456 220.49 20.6333 220.229 20.988C219.977 21.3333 219.851 21.8 219.851 22.388V26ZM232.343 24.992H232.091C232.017 25.1507 231.923 25.3047 231.811 25.454C231.709 25.594 231.569 25.72 231.391 25.832C231.223 25.944 231.018 26.0327 230.775 26.098C230.542 26.1633 230.257 26.196 229.921 26.196C229.492 26.196 229.091 26.1213 228.717 25.972C228.353 25.8133 228.031 25.5847 227.751 25.286C227.481 24.978 227.266 24.6047 227.107 24.166C226.958 23.7273 226.883 23.2233 226.883 22.654V22.402C226.883 21.842 226.963 21.3427 227.121 20.904C227.289 20.4653 227.513 20.0967 227.793 19.798C228.083 19.49 228.414 19.2567 228.787 19.098C229.17 18.9393 229.571 18.86 229.991 18.86C230.551 18.86 230.995 18.9673 231.321 19.182C231.648 19.3873 231.905 19.6813 232.091 20.064H232.343V16.2H234.107V26H232.343V24.992ZM230.495 24.516C231.046 24.516 231.489 24.3433 231.825 23.998C232.171 23.6433 232.343 23.1813 232.343 22.612V22.444C232.343 21.8747 232.171 21.4173 231.825 21.072C231.489 20.7173 231.046 20.54 230.495 20.54C229.945 20.54 229.497 20.7127 229.151 21.058C228.815 21.394 228.647 21.856 228.647 22.444V22.612C228.647 23.2 228.815 23.6667 229.151 24.012C229.497 24.348 229.945 24.516 230.495 24.516ZM241.125 24.992C240.939 25.4307 240.677 25.7433 240.341 25.93C240.005 26.1073 239.613 26.196 239.165 26.196C238.745 26.196 238.349 26.1167 237.975 25.958C237.611 25.7993 237.289 25.566 237.009 25.258C236.729 24.95 236.505 24.5767 236.337 24.138C236.179 23.6993 236.099 23.2 236.099 22.64V22.416C236.099 21.8653 236.179 21.3707 236.337 20.932C236.496 20.4933 236.711 20.12 236.981 19.812C237.252 19.504 237.565 19.2707 237.919 19.112C238.283 18.944 238.671 18.86 239.081 18.86C239.576 18.86 239.973 18.944 240.271 19.112C240.579 19.28 240.822 19.5413 240.999 19.896H241.251V19.056H243.015V23.9C243.015 24.18 243.141 24.32 243.393 24.32H243.659V26H242.455C242.138 26 241.877 25.9067 241.671 25.72C241.475 25.5333 241.377 25.2907 241.377 24.992H241.125ZM239.557 24.516C240.071 24.516 240.481 24.348 240.789 24.012C241.097 23.6667 241.251 23.2 241.251 22.612V22.444C241.251 21.856 241.097 21.394 240.789 21.058C240.481 20.7127 240.071 20.54 239.557 20.54C239.044 20.54 238.633 20.7127 238.325 21.058C238.017 21.394 237.863 21.856 237.863 22.444V22.612C237.863 23.2 238.017 23.6667 238.325 24.012C238.633 24.348 239.044 24.516 239.557 24.516ZM245.568 19.056H248.508V20.064H248.76C248.89 19.6813 249.11 19.3873 249.418 19.182C249.735 18.9673 250.113 18.86 250.552 18.86C251.242 18.86 251.798 19.0793 252.218 19.518C252.638 19.9473 252.848 20.6053 252.848 21.492V21.8L251.028 21.968V21.772C251.028 21.3893 250.93 21.086 250.734 20.862C250.538 20.6287 250.244 20.512 249.852 20.512C249.46 20.512 249.152 20.6473 248.928 20.918C248.704 21.1887 248.592 21.576 248.592 22.08V24.32H250.188V26H245.4V24.32H246.828V20.736H245.568V19.056Z" fill="white"/>
<circle cx="92.5" cy="21.5" r="11.5" fill="white"/>
<path d="M92.0394 16.2595C92.1844 15.8134 92.8155 15.8134 92.9604 16.2595L93.886 19.1081C93.9508 19.3076 94.1368 19.4427 94.3465 19.4427H97.3417C97.8108 19.4427 98.0058 20.0429 97.6263 20.3186L95.2032 22.0791C95.0335 22.2024 94.9624 22.421 95.0273 22.6205L95.9528 25.4691C96.0978 25.9152 95.5872 26.2862 95.2077 26.0105L92.7845 24.2499C92.6148 24.1266 92.385 24.1266 92.2153 24.2499L89.7922 26.0105C89.4127 26.2862 88.9021 25.9152 89.047 25.4691L89.9726 22.6205C90.0374 22.421 89.9664 22.2024 89.7967 22.0791L87.3735 20.3186C86.9941 20.0429 87.1891 19.4427 87.6581 19.4427H90.6533C90.8631 19.4427 91.049 19.3076 91.1139 19.1081L92.0394 16.2595Z" fill="#000"/>
</svg>
