<svg width="121" height="36" viewBox="0 0 121 36" fill="none" xmlns="http://www.w3.org/2000/svg">
<path d="M43.22 11H45.86V16.72H50.38V11H53.02V25H50.38V19.24H45.86V25H43.22V11ZM63.2261 23.56C62.9594 24.1867 62.5861 24.6333 62.1061 24.9C61.6261 25.1533 61.0661 25.28 60.4261 25.28C59.8261 25.28 59.2594 25.1667 58.7261 24.94C58.2061 24.7133 57.7461 24.38 57.3461 23.94C56.9461 23.5 56.6261 22.9667 56.3861 22.34C56.1594 21.7133 56.0461 21 56.0461 20.2V19.88C56.0461 19.0933 56.1594 18.3867 56.3861 17.76C56.6128 17.1333 56.9194 16.6 57.3061 16.16C57.6928 15.72 58.1394 15.3867 58.6461 15.16C59.1661 14.92 59.7194 14.8 60.3061 14.8C61.0128 14.8 61.5794 14.92 62.0061 15.16C62.4461 15.4 62.7928 15.7733 63.0461 16.28H63.4061V15.08H65.9261V22C65.9261 22.4 66.1061 22.6 66.4661 22.6H66.8461V25H65.1261C64.6728 25 64.2994 24.8667 64.0061 24.6C63.7261 24.3333 63.5861 23.9867 63.5861 23.56H63.2261ZM60.9861 22.88C61.7194 22.88 62.3061 22.64 62.7461 22.16C63.1861 21.6667 63.4061 21 63.4061 20.16V19.92C63.4061 19.08 63.1861 18.42 62.7461 17.94C62.3061 17.4467 61.7194 17.2 60.9861 17.2C60.2528 17.2 59.6661 17.4467 59.2261 17.94C58.7861 18.42 58.5661 19.08 58.5661 19.92V20.16C58.5661 21 58.7861 21.6667 59.2261 22.16C59.6661 22.64 60.2528 22.88 60.9861 22.88ZM79.7322 21.36C79.5055 22.5333 78.9655 23.48 78.1122 24.2C77.2722 24.92 76.1455 25.28 74.7322 25.28C73.9989 25.28 73.3122 25.1667 72.6722 24.94C72.0455 24.7133 71.4989 24.3867 71.0322 23.96C70.5655 23.5333 70.1989 23.0067 69.9322 22.38C69.6655 21.7533 69.5322 21.04 69.5322 20.24V20C69.5322 19.2 69.6655 18.48 69.9322 17.84C70.1989 17.2 70.5655 16.6533 71.0322 16.2C71.5122 15.7467 72.0655 15.4 72.6922 15.16C73.3322 14.92 74.0122 14.8 74.7322 14.8C76.1189 14.8 77.2389 15.16 78.0922 15.88C78.9589 16.6 79.5055 17.5467 79.7322 18.72L77.2522 19.36C77.1722 18.7733 76.9189 18.2667 76.4922 17.84C76.0655 17.4133 75.4655 17.2 74.6922 17.2C74.3322 17.2 73.9922 17.2667 73.6722 17.4C73.3522 17.5333 73.0722 17.7267 72.8322 17.98C72.5922 18.22 72.3989 18.52 72.2522 18.88C72.1189 19.2267 72.0522 19.62 72.0522 20.06V20.18C72.0522 20.62 72.1189 21.0133 72.2522 21.36C72.3989 21.6933 72.5922 21.9733 72.8322 22.2C73.0722 22.4267 73.3522 22.6 73.6722 22.72C73.9922 22.8267 74.3322 22.88 74.6922 22.88C75.4655 22.88 76.0522 22.6867 76.4522 22.3C76.8655 21.9133 77.1322 21.3933 77.2522 20.74L79.7322 21.36ZM86.6183 18.72H87.0983L89.7383 15.08H92.4983V15.2L89.2983 19.74V20.1L92.8183 24.88V25H89.9383L87.0983 21.12H86.6183V25H84.0983V11H86.6183V18.72ZM100.184 17.92H106.184V25H103.784V23.44H103.424C103.264 23.96 102.958 24.4 102.504 24.76C102.051 25.1067 101.371 25.28 100.464 25.28C99.8244 25.28 99.2244 25.16 98.6644 24.92C98.1044 24.68 97.6177 24.3267 97.2044 23.86C96.791 23.38 96.4644 22.7933 96.2244 22.1C95.9844 21.3933 95.8644 20.5733 95.8644 19.64V16.36C95.8644 15.4533 95.991 14.6533 96.2444 13.96C96.511 13.2533 96.871 12.66 97.3244 12.18C97.791 11.7 98.3444 11.34 98.9844 11.1C99.6244 10.8467 100.331 10.72 101.104 10.72C101.904 10.72 102.618 10.8533 103.244 11.12C103.871 11.3733 104.404 11.7333 104.844 12.2C105.284 12.6533 105.618 13.1933 105.844 13.82C106.071 14.4333 106.184 15.0933 106.184 15.8V16.04H103.544V15.8C103.544 14.96 103.324 14.3267 102.884 13.9C102.458 13.46 101.851 13.24 101.064 13.24C100.318 13.24 99.7044 13.4933 99.2244 14C98.7444 14.4933 98.5044 15.3467 98.5044 16.56V19.52C98.5044 21.68 99.3844 22.76 101.144 22.76C101.931 22.76 102.524 22.5533 102.924 22.14C103.338 21.7133 103.544 21.1467 103.544 20.44H100.184V17.92ZM109.31 11H119.39V13.52H115.67V25H113.03V13.52H109.31V11Z" fill="url(#paint0_linear)"/>
<path fill-rule="evenodd" clip-rule="evenodd" d="M8.18009 21.3819L0.0211468 16.8179L0 5.52927L9.63051 0L19.582 5.6064V16.8179L13.7852 20.1517L13.8076 28.9463L21.2438 33.1756L28.6801 28.9998L28.7211 20.0895L22.9642 16.7557V14.3923L31 18.7834C30.99 22.6271 30.9797 26.4704 30.9689 30.3133L21.3011 35.8053L11.5188 30.2611L11.5014 18.8903L17.2396 15.4459V6.80928L9.74495 2.51647L2.36347 6.63637V15.5554L8.18506 18.9277L8.18009 21.3819ZM5.28816 8.72845V14.0276L9.87702 16.6759L14.4646 14.0276V8.72845L9.87702 6.08012L5.28816 8.72845ZM16.6377 27.1457V21.8465L21.2253 19.1982L25.8142 21.8465V27.1457L21.2253 29.794L16.6377 27.1457Z" fill="url(#paint1_linear)"/>
<defs>
<linearGradient id="paint0_linear" x1="39.8524" y1="30" x2="73.9574" y2="-25.4458" gradientUnits="userSpaceOnUse">
<stop stop-color="#41D1FF"/>
<stop offset="1" stop-color="#786CEB"/>
</linearGradient>
<linearGradient id="paint1_linear" x1="8.28448" y1="-6.94828" x2="1.68379" y2="39.6242" gradientUnits="userSpaceOnUse">
<stop stop-color="#41D1FF"/>
<stop offset="1" stop-color="#786CEB"/>
</linearGradient>
</defs>
</svg>
