<?xml version="1.0" encoding="utf-8"?>
<!-- Generator: Adobe Illustrator 27.2.0, SVG Export Plug-In . SVG Version: 6.00 Build 0)  -->
<svg width="121" height="36" viewBox="0 0 1060 200" fill="none" xmlns="http://www.w3.org/2000/svg">
<style type="text/css">
	.st0{fill:url(#SVGID_1_);}
	.st1{fill:url(#SVGID_00000127040019475490866920000002996543717542751127_);}
	.st2{fill:url(#SVGID_00000069377597992922714880000012960093560120746399_);}
	.st3{fill:url(#SVGID_00000153677090244238064160000004798668189716555435_);}
	.st4{fill:url(#SVGID_00000165954827423073813690000017766740679366604964_);}
	.st5{fill:url(#SVGID_00000151505562190806093310000017204025151646472370_);}
	.st6{fill:url(#SVGID_00000068678334778564302680000015718786412548588424_);}

		.st7{fill:url(#SVGID_00000013156177848999897200000008256374266174256290_);stroke:url(#SVGID_00000010993256724661963300000011250128808851881913_);stroke-miterlimit:10;}
</style>
<g>
	<linearGradient id="SVGID_1_" gradientUnits="userSpaceOnUse" x1="334.4206" y1="122.9834" x2="1014.242" y2="127.7709">
		<stop  offset="6.528178e-04" style="stop-color:#41D1FF"/>
		<stop  offset="1" style="stop-color:#786CEB"/>
	</linearGradient>
	<path class="st0" d="M347.4,199.6V46.7h20.2v64.1c2.6-6.5,7.1-11.9,13-15.4c6.3-3.7,13.5-5.5,20.7-5.3c5.3-0.2,10.6,0.7,15.5,2.8
		c4.9,2.1,9.3,5.2,12.9,9.2c7.4,8.6,11.2,19.8,10.7,31.2v66.2h-20.2v-62.2c0.3-7.5-2.1-14.9-6.8-20.7c-2.2-2.6-4.9-4.7-8-6
		c-3.1-1.4-6.4-2-9.8-1.9c-3.8-0.1-7.6,0.7-11.1,2.3c-3.5,1.6-6.6,4-9.1,6.9c-5.4,6.5-8.2,14.8-7.9,23.4v58.3H347.4z"/>

		<linearGradient id="SVGID_00000151504692496592073010000017324484620909198209_" gradientUnits="userSpaceOnUse" x1="334.2696" y1="144.4291" x2="1014.091" y2="149.2166">
		<stop  offset="6.528178e-04" style="stop-color:#41D1FF"/>
		<stop  offset="1" style="stop-color:#786CEB"/>
	</linearGradient>
	<path style="fill:url(#SVGID_00000151504692496592073010000017324484620909198209_);" d="M546.1,164.5h20.2
		c-1.7,10.7-7.5,20.3-16,26.7c-9.5,6.9-20.9,10.5-32.5,10c-7.1,0.3-14.2-1.1-20.8-3.9c-6.6-2.8-12.5-7.1-17.3-12.5
		c-9.7-10.8-14.9-25.1-14.6-39.7c-0.5-14.4,4.4-28.4,13.5-39.2c9-10.5,21.5-15.7,37.1-15.7c15.5,0,27.7,4.9,36.5,14.7
		c8.8,9.9,13.6,22.9,13.2,36.3c0,2.7-0.1,5.4-0.4,8.1h-80.1c0.4,9.2,4,18,10.2,24.8c2.9,3.1,6.5,5.6,10.4,7.2
		c3.9,1.6,8.1,2.4,12.3,2.2C533.7,183.6,543.1,177.3,546.1,164.5z M515.8,106.8c-16.9,0-26.9,9.1-30.2,27.3h59.5
		c-0.1-3.8-0.9-7.5-2.5-11c-1.5-3.5-3.7-6.6-6.5-9.1c-2.7-2.6-5.9-4.5-9.4-5.8C523.2,107,519.5,106.5,515.8,106.8L515.8,106.8z"/>

		<linearGradient id="SVGID_00000027571123064643524960000008422950210548913853_" gradientUnits="userSpaceOnUse" x1="334.275" y1="143.6676" x2="1014.0964" y2="148.455">
		<stop  offset="6.528178e-04" style="stop-color:#41D1FF"/>
		<stop  offset="1" style="stop-color:#786CEB"/>
	</linearGradient>
	<path style="fill:url(#SVGID_00000027571123064643524960000008422950210548913853_);" d="M672.2,199.6h-21.4l-27.5-40.4l-27.7,40.4
		h-21.4l38.1-56.4l-34.9-51.3h22.3l23.7,35.1l23.5-35.1h22.3l-34.9,51.3L672.2,199.6z"/>

		<linearGradient id="SVGID_00000029739647337850227300000014082521257134570133_" gradientUnits="userSpaceOnUse" x1="334.4378" y1="120.5441" x2="1014.2592" y2="125.3316">
		<stop  offset="6.528178e-04" style="stop-color:#41D1FF"/>
		<stop  offset="1" style="stop-color:#786CEB"/>
	</linearGradient>
	<path style="fill:url(#SVGID_00000029739647337850227300000014082521257134570133_);" d="M693.8,199.6V46.7H714v152.8H693.8z"/>

		<linearGradient id="SVGID_00000057829532344951065650000002586648430948550813_" gradientUnits="userSpaceOnUse" x1="334.2826" y1="142.5878" x2="1014.104" y2="147.3753">
		<stop  offset="6.528178e-04" style="stop-color:#41D1FF"/>
		<stop  offset="1" style="stop-color:#786CEB"/>
	</linearGradient>
	<path style="fill:url(#SVGID_00000057829532344951065650000002586648430948550813_);" d="M785.4,90.1c13.5,0,24.3,3.7,32.5,11
		c4.1,3.6,7.3,8,9.4,13.1c2.2,5,3.2,10.5,3,16v69.5h-20.2V182c-2.7,6-7.2,11-13,14c-6.5,3.6-13.7,5.4-21.1,5.2
		c-9.4,0.5-18.6-2.7-25.8-9c-3.2-2.9-5.7-6.5-7.4-10.6c-1.7-4-2.5-8.4-2.4-12.8c-0.2-4.7,0.7-9.3,2.7-13.6c1.9-4.2,4.8-8,8.4-10.9
		c7.3-6.1,17.3-9.1,29.7-9.1h21.8c4.7,0,7.1-2.1,7.1-6.4c0.1-3-0.4-6-1.6-8.8c-1.2-2.8-2.9-5.2-5.2-7.2c-5.3-4.3-11.9-6.4-18.6-6
		c-6.5-0.2-12.9,1.9-18,6c-2.2,1.6-4.1,3.8-5.5,6.2c-1.3,2.5-2.1,5.2-2.3,8h-18.7c0.4-5.2,1.8-10.2,4.2-14.8
		c2.4-4.6,5.7-8.6,9.7-11.7C763.1,93.6,774.1,89.8,785.4,90.1z M780,184.8c4.1,0.2,8.2-0.4,12-1.9c3.8-1.5,7.3-3.8,10.2-6.8
		c5.6-6.5,8.4-15,8-23.7v-2.6H783c-5.9-0.3-11.7,1.4-16.5,5c-2,1.6-3.6,3.6-4.7,6c-1.1,2.4-1.6,4.9-1.5,7.6
		c-0.1,2.3,0.4,4.6,1.4,6.7c1,2.1,2.4,3.9,4.2,5.3C769.9,183.5,774.9,185.1,780,184.8L780,184.8z"/>

		<linearGradient id="SVGID_00000088822200730328504370000010836205015478904459_" gradientUnits="userSpaceOnUse" x1="334.4413" y1="120.0447" x2="1014.2628" y2="124.8322">
		<stop  offset="6.528178e-04" style="stop-color:#41D1FF"/>
		<stop  offset="1" style="stop-color:#786CEB"/>
	</linearGradient>
	<path style="fill:url(#SVGID_00000088822200730328504370000010836205015478904459_);" d="M912.7,201.3c-6.8,0.1-13.5-1.6-19.5-4.8
		c-5.6-2.9-10.2-7.3-13.4-12.8v16h-20.2v-153h20.2v60.9c3.3-5.5,7.9-9.9,13.5-12.7c6.1-3.2,12.9-4.9,19.7-4.8
		c15.7,0,27.9,5.2,36.8,15.5c8.9,10.3,13.3,23.7,13.3,40.1c0,16.5-4.4,29.9-13.3,40.1C941,196,928.6,201.1,912.7,201.3z
		 M887.1,172.8c3,3.2,6.7,5.8,10.7,7.6c4,1.8,8.3,2.7,12.7,2.7c4.4,0,8.7-0.9,12.7-2.7c4-1.8,7.7-4.3,10.7-7.6
		c6.1-7.6,9.3-17.3,8.8-27.2c0.5-9.9-2.7-19.6-8.8-27.2c-3-3.2-6.7-5.8-10.7-7.6c-4-1.8-8.3-2.7-12.7-2.7c-4.4,0-8.7,0.9-12.7,2.7
		c-4,1.8-7.7,4.3-10.7,7.6c-6.1,7.6-9.3,17.3-8.8,27.2C877.8,155.6,880.9,165.2,887.1,172.8L887.1,172.8z"/>

		<linearGradient id="SVGID_00000061452855837309904420000009164192688042008465_" gradientUnits="userSpaceOnUse" x1="334.2947" y1="140.8641" x2="1014.1161" y2="145.6516">
		<stop  offset="6.528178e-04" style="stop-color:#41D1FF"/>
		<stop  offset="1" style="stop-color:#786CEB"/>
	</linearGradient>
	<path style="fill:url(#SVGID_00000061452855837309904420000009164192688042008465_);" d="M1023.8,201.3c-10.8,0.5-21.5-3.1-29.9-10
		c-3.8-3.3-6.8-7.4-9-12c-2.2-4.6-3.3-9.6-3.5-14.7h18.9c0.1,2.8,0.8,5.5,2.1,7.9c1.2,2.5,2.9,4.6,5,6.4c4.7,3.6,10.5,5.4,16.4,5.1
		c5.1,0.2,10.1-1.2,14.3-4.2c1.7-1.2,3.2-2.9,4.1-4.8c1-1.9,1.4-4.1,1.4-6.3c-0.1-2.2-0.7-4.3-1.7-6.2c-1.1-1.9-2.6-3.4-4.4-4.6
		c-4.6-2.6-9.6-4.3-14.9-4.9c-5.8-0.8-11.7-1.8-17.5-3.3c-5.8-1.3-11-4.5-14.9-9c-4.4-5.6-6.6-12.6-6.1-19.8
		c-0.1-4.3,0.8-8.6,2.6-12.5c1.8-3.9,4.5-7.3,7.8-9.9c7.7-5.9,17.2-8.9,26.9-8.4c10.4-0.5,20.6,2.8,28.9,9.3
		c3.6,2.9,6.6,6.6,8.7,10.8c2.1,4.2,3.2,8.9,3.4,13.6h-18.9c-0.2-2.6-1.1-5.1-2.4-7.4c-1.3-2.2-3.2-4.1-5.3-5.5
		c-4.3-2.9-9.3-4.4-14.4-4.4c-4.6-0.2-9.2,1.1-13,3.8c-1.6,1.1-2.8,2.6-3.7,4.4c-0.9,1.7-1.3,3.7-1.3,5.6c-0.1,2.2,0.4,4.3,1.5,6.2
		c1.1,1.9,2.7,3.4,4.6,4.3c4.7,2.3,9.8,3.7,15,4.1c5.9,0.7,11.9,1.7,17.7,3.1c5.9,1.4,11.2,4.8,15,9.6c4.4,6.1,6.6,13.6,6.1,21.2
		c0.1,4.5-0.8,8.9-2.6,13c-1.9,4.1-4.6,7.6-8.1,10.4C1045.3,198.3,1035.7,201.3,1023.8,201.3z"/>
</g>
<linearGradient id="SVGID_00000127733908622993048340000003734236711768868540_" gradientUnits="userSpaceOnUse" x1="163.1756" y1="251.9362" x2="125.8459" y2="-11.4505">
	<stop  offset="6.528178e-04" style="stop-color:#41D1FF"/>
	<stop  offset="1" style="stop-color:#786CEB"/>
</linearGradient>
<linearGradient id="SVGID_00000172435645629114968290000004578935574997702278_" gradientUnits="userSpaceOnUse" x1="-0.5736" y1="120.2406" x2="289.5943" y2="120.2406">
	<stop  offset="0" style="stop-color:#FFFFFF"/>
	<stop  offset="0" style="stop-color:#F8F8F8"/>
	<stop  offset="0.997" style="stop-color:#000000"/>
</linearGradient>
<path style="fill:url(#SVGID_00000127733908622993048340000003734236711768868540_);stroke:url(#SVGID_00000172435645629114968290000004578935574997702278_);stroke-miterlimit:10;" d="
	M95.8,136.9H58.2L26.3,80.2l31.9-56.8H122l31.9,56.8l-45,80.2l45,80.2H244l45-80.2l-45-80.2h-37.6l-13,23.4h37.4l31.9,56.8
	l-31.9,56.8H167l-31.9-56.8l45.1-80.2L135.1,0H45.1L0,80.2l45.1,80.2h37.6L95.8,136.9z"/>
</svg>
