<svg width="158" height="31" viewBox="0 0 158 31" fill="none" xmlns="http://www.w3.org/2000/svg">
<path d="M0.510579 1.19008H5.94331V12.961H15.2448V1.19008H20.6775V30H15.2448V18.1468H5.94331V30H0.510579V1.19008ZM41.6801 27.0367C41.1314 28.3263 40.3631 29.2455 39.3754 29.7942C38.3876 30.3155 37.2352 30.5762 35.9182 30.5762C34.6835 30.5762 33.5173 30.343 32.4198 29.8765C31.3497 29.4101 30.4031 28.7241 29.58 27.8187C28.7568 26.9132 28.0983 25.8157 27.6044 24.5261C27.138 23.2365 26.9048 21.7686 26.9048 20.1223V19.4638C26.9048 17.845 27.138 16.3907 27.6044 15.1012C28.0709 13.8116 28.702 12.714 29.4977 11.8086C30.2934 10.9031 31.2125 10.2172 32.2552 9.75074C33.3253 9.25686 34.4639 9.00991 35.6712 9.00991C37.1254 9.00991 38.2916 9.25686 39.1696 9.75074C40.075 10.2446 40.7884 11.0129 41.3097 12.0555H42.0506V9.58611H47.2363V23.8264C47.2363 24.6496 47.6068 25.0612 48.3476 25.0612H49.1296V30H45.5901C44.6572 30 43.8889 29.7256 43.2853 29.1769C42.7091 28.6281 42.421 27.9147 42.421 27.0367H41.6801ZM37.0706 25.6374C38.5797 25.6374 39.7869 25.1435 40.6924 24.1557C41.5978 23.1405 42.0506 21.7686 42.0506 20.04V19.5461C42.0506 17.8175 41.5978 16.4593 40.6924 15.4716C39.7869 14.4564 38.5797 13.9488 37.0706 13.9488C35.5615 13.9488 34.3542 14.4564 33.4487 15.4716C32.5433 16.4593 32.0906 17.8175 32.0906 19.5461V20.04C32.0906 21.7686 32.5433 23.1405 33.4487 24.1557C34.3542 25.1435 35.5615 25.6374 37.0706 25.6374ZM75.6472 22.5094C75.1808 24.924 74.0696 26.8721 72.3135 28.3537C70.5849 29.8354 68.2664 30.5762 65.358 30.5762C63.8489 30.5762 62.4358 30.343 61.1188 29.8765C59.8292 29.4101 58.7043 28.7379 57.7439 27.8598C56.7836 26.9818 56.0291 25.898 55.4803 24.6084C54.9315 23.3188 54.6572 21.8509 54.6572 20.2046V19.7107C54.6572 18.0645 54.9315 16.5828 55.4803 15.2658C56.0291 13.9488 56.7836 12.8238 57.7439 11.8909C58.7317 10.958 59.8704 10.2446 61.16 9.75074C62.477 9.25686 63.8763 9.00991 65.358 9.00991C68.2115 9.00991 70.5163 9.75074 72.2724 11.2324C74.0558 12.714 75.1808 14.6621 75.6472 17.0767L70.5438 18.3937C70.3791 17.1864 69.8578 16.1438 68.9798 15.2658C68.1018 14.3878 66.8671 13.9488 65.2757 13.9488C64.5348 13.9488 63.8352 14.0859 63.1767 14.3603C62.5181 14.6347 61.9419 15.0326 61.4481 15.5539C60.9542 16.0478 60.5563 16.6651 60.2545 17.4059C59.9801 18.1193 59.8429 18.9288 59.8429 19.8342V20.0812C59.8429 20.9866 59.9801 21.796 60.2545 22.5094C60.5563 23.1954 60.9542 23.7716 61.4481 24.238C61.9419 24.7045 62.5181 25.0612 63.1767 25.3081C63.8352 25.5276 64.5348 25.6374 65.2757 25.6374C66.8671 25.6374 68.0743 25.2395 68.8975 24.4438C69.7481 23.6481 70.2968 22.578 70.5438 21.2336L75.6472 22.5094ZM89.8178 17.0767H90.8056L96.2383 9.58611H101.918V9.83306L95.3328 19.1757V19.9165L102.576 29.7531V30H96.6499L90.8056 22.0155H89.8178V30H84.632V1.19008H89.8178V17.0767ZM117.735 15.4304H130.082V30H125.143V26.7898H124.402C124.073 27.8598 123.442 28.7653 122.509 29.5061C121.576 30.2195 120.177 30.5762 118.311 30.5762C116.994 30.5762 115.759 30.3293 114.607 29.8354C113.454 29.3415 112.453 28.6144 111.602 27.654C110.752 26.6663 110.08 25.459 109.586 24.0322C109.092 22.578 108.845 20.8906 108.845 18.9699V12.2202C108.845 10.3544 109.106 8.7081 109.627 7.28132C110.176 5.8271 110.916 4.60611 111.849 3.61834C112.81 2.63057 113.948 1.88975 115.265 1.39586C116.582 0.874541 118.037 0.61388 119.628 0.61388C121.274 0.61388 122.742 0.888261 124.032 1.43702C125.321 1.95834 126.419 2.69917 127.324 3.6595C128.23 4.59239 128.916 5.70363 129.382 6.99322C129.849 8.25537 130.082 9.61355 130.082 11.0678V11.5617H124.649V11.0678C124.649 9.33917 124.196 8.03587 123.291 7.15785C122.413 6.25239 121.165 5.79967 119.546 5.79967C118.009 5.79967 116.747 6.32099 115.759 7.36363C114.771 8.37884 114.278 10.1349 114.278 12.6317V18.723C114.278 23.1679 116.089 25.3904 119.71 25.3904C121.329 25.3904 122.55 24.9651 123.373 24.1145C124.224 23.2365 124.649 22.0704 124.649 20.6162H117.735V15.4304ZM136.515 1.19008H157.258V6.37587H149.603V30H144.17V6.37587H136.515V1.19008Z" fill="url(#paint0_linear)"/>
<defs>
<linearGradient id="paint0_linear" x1="-6.40388" y1="40" x2="63.0067" y2="-73.4315" gradientUnits="userSpaceOnUse">
<stop stop-color="#41D1FF"/>
<stop offset="1" stop-color="#786CEB"/>
</linearGradient>
</defs>
</svg>
