<svg width="75" height="87" viewBox="0 0 75 87" fill="none" xmlns="http://www.w3.org/2000/svg">
<path fill-rule="evenodd" clip-rule="evenodd" d="M19.7905 51.7305L0.0511617 40.6886L0 13.3773L23.2996 0L47.3757 13.5639V40.6886L33.3514 48.7541L33.4056 70.0313L51.3964 80.2636L69.3873 70.1607L69.4866 48.6036L55.5586 40.5381V34.82L75 45.4436C74.9759 54.743 74.9508 64.0414 74.9248 73.3387L51.5349 86.6257L27.8681 73.2123L27.8259 45.7024L41.7088 37.3691V16.4741L23.5765 6.08824L5.71807 16.0557V37.6339L19.8026 45.7927L19.7905 51.7305ZM12.7934 21.1176V33.9381L23.8955 40.3453L34.9945 33.9381V21.1176L23.8955 14.7103L12.7934 21.1176ZM40.2523 65.6764V52.8559L51.3513 46.4487L62.4534 52.8559V65.6764L51.3513 72.0837L40.2523 65.6764Z" fill="url(#paint0_linear)"/>
<defs>
<linearGradient id="paint0_linear" x1="20.0431" y1="-16.8103" x2="4.07369" y2="95.865" gradientUnits="userSpaceOnUse">
<stop stop-color="#41D1FF"/>
<stop offset="1" stop-color="#786CEB"/>
</linearGradient>
</defs>
</svg>
