<svg width="31" height="32" viewBox="0 0 31 32" fill="none" xmlns="http://www.w3.org/2000/svg">
<circle cx="15.5" cy="16" r="15.5" fill="#F2F2F2"/>
<path fill-rule="evenodd" clip-rule="evenodd" d="M14.3049 11.8987C14.715 11.4886 14.715 10.8238 14.3049 10.4137C13.8949 10.0037 13.2301 10.0037 12.82 10.4137L7.98054 15.2532C7.96597 15.2676 7.95183 15.2824 7.93813 15.2976C7.86144 15.3827 7.80112 15.4774 7.75717 15.5774C7.70028 15.7067 7.6687 15.8496 7.6687 15.9999C7.6687 16.1457 7.69841 16.2845 7.75209 16.4107C7.80326 16.5312 7.87798 16.6441 7.97625 16.7424L12.82 21.5862C13.2301 21.9962 13.8949 21.9962 14.3049 21.5862C14.715 21.1761 14.715 20.5113 14.3049 20.1012L11.2536 17.0499H22.2812C22.8611 17.0499 23.3312 16.5798 23.3312 15.9999C23.3312 15.42 22.8611 14.9499 22.2812 14.9499H11.2537L14.3049 11.8987Z" fill="#C3C3C3"/>
</svg>
