<svg width="335" height="47" viewBox="0 0 335 47" fill="none" xmlns="http://www.w3.org/2000/svg">
<rect width="335" height="47" rx="5" fill="url(#paint0_linear)"/>
<path d="M139.622 17.4H141.998V27.732H147.722V30H139.622V17.4ZM160.22 25.644C160.22 26.388 160.094 27.048 159.842 27.624C159.59 28.188 159.248 28.668 158.816 29.064C158.384 29.448 157.886 29.742 157.322 29.946C156.77 30.15 156.188 30.252 155.576 30.252C154.964 30.252 154.376 30.15 153.812 29.946C153.26 29.742 152.768 29.448 152.336 29.064C151.904 28.668 151.562 28.188 151.31 27.624C151.058 27.048 150.932 26.388 150.932 25.644V25.428C150.932 24.696 151.058 24.048 151.31 23.484C151.562 22.908 151.904 22.422 152.336 22.026C152.768 21.63 153.26 21.33 153.812 21.126C154.376 20.922 154.964 20.82 155.576 20.82C156.188 20.82 156.77 20.922 157.322 21.126C157.886 21.33 158.384 21.63 158.816 22.026C159.248 22.422 159.59 22.908 159.842 23.484C160.094 24.048 160.22 24.696 160.22 25.428V25.644ZM155.576 28.092C155.9 28.092 156.206 28.038 156.494 27.93C156.782 27.822 157.034 27.666 157.25 27.462C157.466 27.258 157.634 27.012 157.754 26.724C157.886 26.424 157.952 26.088 157.952 25.716V25.356C157.952 24.984 157.886 24.654 157.754 24.366C157.634 24.066 157.466 23.814 157.25 23.61C157.034 23.406 156.782 23.25 156.494 23.142C156.206 23.034 155.9 22.98 155.576 22.98C155.252 22.98 154.946 23.034 154.658 23.142C154.37 23.25 154.118 23.406 153.902 23.61C153.686 23.814 153.512 24.066 153.38 24.366C153.26 24.654 153.2 24.984 153.2 25.356V25.716C153.2 26.088 153.26 26.424 153.38 26.724C153.512 27.012 153.686 27.258 153.902 27.462C154.118 27.666 154.37 27.822 154.658 27.93C154.946 28.038 155.252 28.092 155.576 28.092ZM169.765 28.704H169.441C169.345 28.908 169.225 29.106 169.081 29.298C168.949 29.478 168.769 29.64 168.541 29.784C168.325 29.928 168.061 30.042 167.749 30.126C167.449 30.21 167.083 30.252 166.651 30.252C166.099 30.252 165.583 30.156 165.103 29.964C164.635 29.76 164.221 29.466 163.861 29.082C163.513 28.686 163.237 28.206 163.033 27.642C162.841 27.078 162.745 26.43 162.745 25.698V25.374C162.745 24.654 162.847 24.012 163.051 23.448C163.267 22.884 163.555 22.41 163.915 22.026C164.287 21.63 164.713 21.33 165.193 21.126C165.685 20.922 166.201 20.82 166.741 20.82C167.461 20.82 168.031 20.958 168.451 21.234C168.871 21.498 169.201 21.876 169.441 22.368H169.765V21.072H172.033V32.196C172.033 32.604 171.901 32.94 171.637 33.204C171.385 33.468 171.055 33.6 170.647 33.6H164.635V31.44H169.279C169.603 31.44 169.765 31.26 169.765 30.9V28.704ZM167.389 28.092C168.097 28.092 168.667 27.87 169.099 27.426C169.543 26.97 169.765 26.376 169.765 25.644V25.428C169.765 24.696 169.543 24.108 169.099 23.664C168.667 23.208 168.097 22.98 167.389 22.98C166.681 22.98 166.105 23.202 165.661 23.646C165.229 24.078 165.013 24.672 165.013 25.428V25.644C165.013 26.4 165.229 27 165.661 27.444C166.105 27.876 166.681 28.092 167.389 28.092ZM175.477 27.84H178.501V23.232H175.693V21.072H180.769V27.84H183.361V30H175.477V27.84ZM181.327 18.426C181.327 18.666 181.279 18.894 181.183 19.11C181.099 19.314 180.979 19.494 180.823 19.65C180.667 19.794 180.481 19.914 180.265 20.01C180.061 20.094 179.845 20.136 179.617 20.136C179.377 20.136 179.155 20.094 178.951 20.01C178.747 19.914 178.567 19.794 178.411 19.65C178.255 19.494 178.129 19.314 178.033 19.11C177.949 18.894 177.907 18.666 177.907 18.426C177.907 18.186 177.949 17.964 178.033 17.76C178.129 17.544 178.255 17.364 178.411 17.22C178.567 17.064 178.747 16.944 178.951 16.86C179.155 16.764 179.377 16.716 179.617 16.716C179.845 16.716 180.061 16.764 180.265 16.86C180.481 16.944 180.667 17.064 180.823 17.22C180.979 17.364 181.099 17.544 181.183 17.76C181.279 17.964 181.327 18.186 181.327 18.426ZM189.504 30H187.236V21.072H189.504V22.404H189.828C190.032 21.9 190.362 21.51 190.818 21.234C191.274 20.958 191.808 20.82 192.42 20.82C192.852 20.82 193.254 20.892 193.626 21.036C194.01 21.168 194.346 21.378 194.634 21.666C194.922 21.954 195.144 22.32 195.3 22.764C195.468 23.208 195.552 23.736 195.552 24.348V30H193.284V24.924C193.284 24.288 193.128 23.79 192.816 23.43C192.516 23.058 192.078 22.872 191.502 22.872C190.83 22.872 190.326 23.1 189.99 23.556C189.666 24 189.504 24.6 189.504 25.356V30Z" fill="white"/>
<defs>
<linearGradient id="paint0_linear" x1="-9.10679" y1="47" x2="27.3623" y2="-86.7319" gradientUnits="userSpaceOnUse">
<stop stop-color="#41D1FF"/>
<stop offset="1" stop-color="#786CEB"/>
</linearGradient>
</defs>
</svg>
