<svg width="47" height="10" viewBox="0 0 47 10" fill="none" xmlns="http://www.w3.org/2000/svg">
<path d="M3.72 8.232C4.064 8.232 4.356 8.176 4.596 8.064C4.844 7.944 5.044 7.788 5.196 7.596C5.356 7.396 5.472 7.172 5.544 6.924C5.624 6.668 5.664 6.4 5.664 6.12V5.976H6.672V6.12C6.672 6.544 6.608 6.944 6.48 7.32C6.352 7.688 6.164 8.012 5.916 8.292C5.668 8.564 5.36 8.78 4.992 8.94C4.624 9.092 4.2 9.168 3.72 9.168C2.792 9.168 2.068 8.876 1.548 8.292C1.028 7.708 0.768 6.856 0.768 5.736V3.864C0.768 2.776 1.028 1.932 1.548 1.332C2.068 0.731999 2.792 0.431999 3.72 0.431999C4.2 0.431999 4.624 0.512 4.992 0.672C5.36 0.824 5.668 1.04 5.916 1.32C6.164 1.592 6.352 1.916 6.48 2.292C6.608 2.66 6.672 3.056 6.672 3.48V3.624H5.664V3.48C5.656 3.208 5.612 2.944 5.532 2.688C5.46 2.432 5.344 2.208 5.184 2.016C5.032 1.816 4.836 1.66 4.596 1.548C4.356 1.428 4.064 1.368 3.72 1.368C3.072 1.368 2.584 1.604 2.256 2.076C1.936 2.548 1.776 3.168 1.776 3.936V5.664C1.776 6.488 1.936 7.124 2.256 7.572C2.584 8.012 3.072 8.232 3.72 8.232ZM13.3117 7.992H13.1677C12.9757 8.392 12.7077 8.688 12.3637 8.88C12.0277 9.072 11.6717 9.168 11.2957 9.168C10.9037 9.168 10.5397 9.104 10.2037 8.976C9.86766 8.84 9.57166 8.644 9.31566 8.388C9.06766 8.124 8.87166 7.804 8.72766 7.428C8.58366 7.052 8.51166 6.616 8.51166 6.12V5.928C8.51166 5.44 8.58366 5.008 8.72766 4.632C8.87166 4.256 9.06766 3.94 9.31566 3.684C9.57166 3.42 9.86766 3.22 10.2037 3.084C10.5397 2.948 10.8957 2.88 11.2717 2.88C11.6797 2.88 12.0477 2.972 12.3757 3.156C12.7117 3.332 12.9757 3.608 13.1677 3.984H13.3117V3.048H14.2477V7.776C14.2477 8.016 14.3557 8.136 14.5717 8.136H14.8717V9H14.2357C13.9637 9 13.7397 8.912 13.5637 8.736C13.3957 8.56 13.3117 8.336 13.3117 8.064V7.992ZM11.3917 8.28C11.6717 8.28 11.9277 8.228 12.1597 8.124C12.3997 8.02 12.6037 7.872 12.7717 7.68C12.9397 7.488 13.0717 7.26 13.1677 6.996C13.2637 6.724 13.3117 6.424 13.3117 6.096V5.952C13.3117 5.632 13.2637 5.34 13.1677 5.076C13.0717 4.804 12.9357 4.572 12.7597 4.38C12.5917 4.188 12.3877 4.04 12.1477 3.936C11.9157 3.824 11.6637 3.768 11.3917 3.768C11.1117 3.768 10.8557 3.82 10.6237 3.924C10.3917 4.028 10.1877 4.176 10.0117 4.368C9.84366 4.552 9.71166 4.78 9.61566 5.052C9.51966 5.316 9.47166 5.608 9.47166 5.928V6.12C9.47166 6.8 9.64766 7.332 9.99966 7.716C10.3597 8.092 10.8237 8.28 11.3917 8.28ZM17.8753 9H16.9393V3.048H17.8753V4.056H18.0193C18.3873 3.272 19.0273 2.88 19.9393 2.88C20.6273 2.88 21.1753 3.096 21.5833 3.528C21.9913 3.952 22.1953 4.592 22.1953 5.448V9H21.2593V5.64C21.2593 5.016 21.1193 4.548 20.8393 4.236C20.5593 3.924 20.1793 3.768 19.6993 3.768C19.1313 3.768 18.6833 3.964 18.3553 4.356C18.0353 4.74 17.8753 5.256 17.8753 5.904V9ZM30.455 6.888C30.391 7.216 30.279 7.52 30.119 7.8C29.967 8.08 29.771 8.324 29.531 8.532C29.291 8.732 29.011 8.888 28.691 9C28.371 9.112 28.015 9.168 27.623 9.168C27.207 9.168 26.811 9.1 26.435 8.964C26.067 8.828 25.743 8.632 25.463 8.376C25.183 8.112 24.959 7.792 24.791 7.416C24.631 7.04 24.551 6.608 24.551 6.12V5.976C24.551 5.496 24.631 5.064 24.791 4.68C24.959 4.296 25.183 3.972 25.463 3.708C25.743 3.444 26.067 3.24 26.435 3.096C26.811 2.952 27.207 2.88 27.623 2.88C27.999 2.88 28.347 2.936 28.667 3.048C28.987 3.16 29.267 3.32 29.507 3.528C29.755 3.728 29.955 3.968 30.107 4.248C30.267 4.528 30.375 4.832 30.431 5.16L29.495 5.376C29.471 5.168 29.411 4.968 29.315 4.776C29.227 4.576 29.103 4.404 28.943 4.26C28.791 4.108 28.603 3.988 28.379 3.9C28.155 3.812 27.895 3.768 27.599 3.768C27.311 3.768 27.039 3.824 26.783 3.936C26.535 4.04 26.315 4.192 26.123 4.392C25.931 4.584 25.779 4.816 25.667 5.088C25.563 5.36 25.511 5.656 25.511 5.976V6.12C25.511 6.456 25.563 6.76 25.667 7.032C25.779 7.296 25.931 7.52 26.123 7.704C26.315 7.888 26.539 8.032 26.795 8.136C27.051 8.232 27.327 8.28 27.623 8.28C27.919 8.28 28.175 8.236 28.391 8.148C28.615 8.052 28.803 7.932 28.955 7.788C29.115 7.636 29.239 7.464 29.327 7.272C29.423 7.08 29.487 6.88 29.519 6.672L30.455 6.888ZM33.5186 6.312C33.5426 6.904 33.7266 7.38 34.0706 7.74C34.4146 8.1 34.8946 8.28 35.5106 8.28C35.7906 8.28 36.0346 8.248 36.2426 8.184C36.4506 8.12 36.6266 8.032 36.7706 7.92C36.9226 7.808 37.0426 7.68 37.1306 7.536C37.2266 7.384 37.3026 7.224 37.3586 7.056L38.2466 7.296C38.0786 7.848 37.7666 8.3 37.3106 8.652C36.8626 8.996 36.2546 9.168 35.4866 9.168C35.0626 9.168 34.6706 9.096 34.3106 8.952C33.9586 8.8 33.6546 8.588 33.3986 8.316C33.1426 8.044 32.9426 7.72 32.7986 7.344C32.6546 6.968 32.5826 6.552 32.5826 6.096V5.808C32.5826 5.392 32.6546 5.004 32.7986 4.644C32.9506 4.284 33.1586 3.976 33.4226 3.72C33.6866 3.456 33.9946 3.252 34.3466 3.108C34.7066 2.956 35.0946 2.88 35.5106 2.88C35.9986 2.88 36.4186 2.972 36.7706 3.156C37.1306 3.332 37.4226 3.552 37.6466 3.816C37.8786 4.08 38.0466 4.368 38.1506 4.68C38.2626 4.992 38.3186 5.28 38.3186 5.544V6.312H33.5186ZM35.5106 3.768C35.2466 3.768 34.9986 3.812 34.7666 3.9C34.5426 3.98 34.3426 4.096 34.1666 4.248C33.9986 4.4 33.8586 4.58 33.7466 4.788C33.6426 4.988 33.5746 5.208 33.5426 5.448H37.3826C37.3666 5.192 37.3026 4.96 37.1906 4.752C37.0866 4.544 36.9466 4.368 36.7706 4.224C36.6026 4.08 36.4066 3.968 36.1826 3.888C35.9666 3.808 35.7426 3.768 35.5106 3.768ZM40.7823 8.136H42.9423V1.464H40.8543V0.599999H43.8783V8.136H46.0383V9H40.7823V8.136Z" fill="url(#paint0_linear)"/>
<defs>
<linearGradient id="paint0_linear" x1="-1.30485" y1="13" x2="24.8873" y2="-22.9338" gradientUnits="userSpaceOnUse">
<stop stop-color="#41D1FF"/>
<stop offset="1" stop-color="#786CEB"/>
</linearGradient>
</defs>
</svg>
