<svg width="335" height="47" viewBox="0 0 335 47" fill="none" xmlns="http://www.w3.org/2000/svg">
<path d="M125.808 28.092C126.264 28.092 126.636 28.026 126.924 27.894C127.224 27.75 127.452 27.564 127.608 27.336C127.776 27.096 127.89 26.826 127.95 26.526C128.01 26.214 128.04 25.896 128.04 25.572V25.248H130.416V25.572C130.416 27.072 130.02 28.23 129.228 29.046C128.448 29.85 127.308 30.252 125.808 30.252C124.368 30.252 123.228 29.814 122.388 28.938C121.548 28.062 121.128 26.784 121.128 25.104V22.296C121.128 21.492 121.236 20.772 121.452 20.136C121.668 19.488 121.98 18.948 122.388 18.516C122.796 18.072 123.288 17.736 123.864 17.508C124.44 17.268 125.088 17.148 125.808 17.148C126.552 17.148 127.212 17.256 127.788 17.472C128.364 17.688 128.844 18 129.228 18.408C129.624 18.816 129.918 19.308 130.11 19.884C130.314 20.46 130.416 21.108 130.416 21.828V22.152H128.04V21.828C128.04 21.528 128.004 21.228 127.932 20.928C127.86 20.628 127.74 20.358 127.572 20.118C127.404 19.878 127.176 19.686 126.888 19.542C126.6 19.386 126.24 19.308 125.808 19.308C125.412 19.308 125.07 19.386 124.782 19.542C124.494 19.686 124.254 19.89 124.062 20.154C123.87 20.406 123.726 20.706 123.63 21.054C123.546 21.39 123.504 21.744 123.504 22.116V25.284C123.504 25.692 123.546 26.07 123.63 26.418C123.714 26.754 123.846 27.048 124.026 27.3C124.206 27.552 124.44 27.75 124.728 27.894C125.028 28.026 125.388 28.092 125.808 28.092ZM142.338 25.644C142.338 26.388 142.212 27.048 141.96 27.624C141.708 28.188 141.366 28.668 140.934 29.064C140.502 29.448 140.004 29.742 139.44 29.946C138.888 30.15 138.306 30.252 137.694 30.252C137.082 30.252 136.494 30.15 135.93 29.946C135.378 29.742 134.886 29.448 134.454 29.064C134.022 28.668 133.68 28.188 133.428 27.624C133.176 27.048 133.05 26.388 133.05 25.644V25.428C133.05 24.696 133.176 24.048 133.428 23.484C133.68 22.908 134.022 22.422 134.454 22.026C134.886 21.63 135.378 21.33 135.93 21.126C136.494 20.922 137.082 20.82 137.694 20.82C138.306 20.82 138.888 20.922 139.44 21.126C140.004 21.33 140.502 21.63 140.934 22.026C141.366 22.422 141.708 22.908 141.96 23.484C142.212 24.048 142.338 24.696 142.338 25.428V25.644ZM137.694 28.092C138.018 28.092 138.324 28.038 138.612 27.93C138.9 27.822 139.152 27.666 139.368 27.462C139.584 27.258 139.752 27.012 139.872 26.724C140.004 26.424 140.07 26.088 140.07 25.716V25.356C140.07 24.984 140.004 24.654 139.872 24.366C139.752 24.066 139.584 23.814 139.368 23.61C139.152 23.406 138.9 23.25 138.612 23.142C138.324 23.034 138.018 22.98 137.694 22.98C137.37 22.98 137.064 23.034 136.776 23.142C136.488 23.25 136.236 23.406 136.02 23.61C135.804 23.814 135.63 24.066 135.498 24.366C135.378 24.654 135.318 24.984 135.318 25.356V25.716C135.318 26.088 135.378 26.424 135.498 26.724C135.63 27.012 135.804 27.258 136.02 27.462C136.236 27.666 136.488 27.822 136.776 27.93C137.064 28.038 137.37 28.092 137.694 28.092ZM147.779 30H145.511V21.072H147.779V22.404H148.103C148.307 21.9 148.637 21.51 149.093 21.234C149.549 20.958 150.083 20.82 150.695 20.82C151.127 20.82 151.529 20.892 151.901 21.036C152.285 21.168 152.621 21.378 152.909 21.666C153.197 21.954 153.419 22.32 153.575 22.764C153.743 23.208 153.827 23.736 153.827 24.348V30H151.559V24.924C151.559 24.288 151.403 23.79 151.091 23.43C150.791 23.058 150.353 22.872 149.777 22.872C149.105 22.872 148.601 23.1 148.265 23.556C147.941 24 147.779 24.6 147.779 25.356V30ZM157.181 21.072H159.827V17.4H162.095V21.072H165.317V23.232H162.095V27.3C162.095 27.66 162.257 27.84 162.581 27.84H164.993V30H161.213C160.805 30 160.469 29.868 160.205 29.604C159.953 29.34 159.827 29.004 159.827 28.596V23.232H157.181V21.072ZM169.516 27.84H172.54V23.232H169.732V21.072H174.808V27.84H177.4V30H169.516V27.84ZM175.366 18.426C175.366 18.666 175.318 18.894 175.222 19.11C175.138 19.314 175.018 19.494 174.862 19.65C174.706 19.794 174.52 19.914 174.304 20.01C174.1 20.094 173.884 20.136 173.656 20.136C173.416 20.136 173.194 20.094 172.99 20.01C172.786 19.914 172.606 19.794 172.45 19.65C172.294 19.494 172.168 19.314 172.072 19.11C171.988 18.894 171.946 18.666 171.946 18.426C171.946 18.186 171.988 17.964 172.072 17.76C172.168 17.544 172.294 17.364 172.45 17.22C172.606 17.064 172.786 16.944 172.99 16.86C173.194 16.764 173.416 16.716 173.656 16.716C173.884 16.716 174.1 16.764 174.304 16.86C174.52 16.944 174.706 17.064 174.862 17.22C175.018 17.364 175.138 17.544 175.222 17.76C175.318 17.964 175.366 18.186 175.366 18.426ZM183.543 30H181.275V21.072H183.543V22.404H183.867C184.071 21.9 184.401 21.51 184.857 21.234C185.313 20.958 185.847 20.82 186.459 20.82C186.891 20.82 187.293 20.892 187.665 21.036C188.049 21.168 188.385 21.378 188.673 21.666C188.961 21.954 189.183 22.32 189.339 22.764C189.507 23.208 189.591 23.736 189.591 24.348V30H187.323V24.924C187.323 24.288 187.167 23.79 186.855 23.43C186.555 23.058 186.117 22.872 185.541 22.872C184.869 22.872 184.365 23.1 184.029 23.556C183.705 24 183.543 24.6 183.543 25.356V30ZM199.245 21.072H201.513V30H199.245V28.704H198.921C198.525 29.736 197.673 30.252 196.365 30.252C195.921 30.252 195.507 30.18 195.123 30.036C194.739 29.892 194.403 29.67 194.115 29.37C193.827 29.07 193.599 28.698 193.431 28.254C193.275 27.798 193.197 27.264 193.197 26.652V21.072H195.465V26.184C195.465 26.82 195.615 27.318 195.915 27.678C196.215 28.026 196.665 28.2 197.265 28.2C197.949 28.2 198.447 27.984 198.759 27.552C199.083 27.108 199.245 26.508 199.245 25.752V21.072ZM207.116 26.274C207.128 26.538 207.188 26.784 207.296 27.012C207.416 27.228 207.572 27.42 207.764 27.588C207.968 27.744 208.196 27.87 208.448 27.966C208.712 28.05 208.988 28.092 209.276 28.092C209.84 28.092 210.272 27.996 210.572 27.804C210.872 27.6 211.088 27.36 211.22 27.084L213.164 28.164C213.056 28.392 212.906 28.632 212.714 28.884C212.522 29.124 212.27 29.346 211.958 29.55C211.658 29.754 211.286 29.922 210.842 30.054C210.41 30.186 209.9 30.252 209.312 30.252C208.64 30.252 208.028 30.144 207.476 29.928C206.924 29.712 206.444 29.4 206.036 28.992C205.64 28.584 205.328 28.086 205.1 27.498C204.884 26.91 204.776 26.244 204.776 25.5V25.392C204.776 24.708 204.89 24.084 205.118 23.52C205.358 22.956 205.682 22.476 206.09 22.08C206.498 21.684 206.972 21.378 207.512 21.162C208.064 20.934 208.652 20.82 209.276 20.82C210.044 20.82 210.704 20.958 211.256 21.234C211.808 21.498 212.264 21.84 212.624 22.26C212.984 22.668 213.248 23.124 213.416 23.628C213.584 24.12 213.668 24.6 213.668 25.068V26.274H207.116ZM209.258 22.872C208.682 22.872 208.214 23.022 207.854 23.322C207.494 23.61 207.26 23.946 207.152 24.33H211.364C211.292 23.91 211.064 23.562 210.68 23.286C210.308 23.01 209.834 22.872 209.258 22.872Z" fill="url(#paint0_linear)"/>
<rect x="1" y="1" width="333" height="45" rx="4" stroke="url(#paint1_linear)" stroke-width="2"/>
<defs>
<linearGradient id="paint0_linear" x1="85.7864" y1="37" x2="110.858" y2="-37.0489" gradientUnits="userSpaceOnUse">
<stop stop-color="#41D1FF"/>
<stop offset="1" stop-color="#786CEB"/>
</linearGradient>
<linearGradient id="paint1_linear" x1="-9.10679" y1="47" x2="27.3623" y2="-86.7319" gradientUnits="userSpaceOnUse">
<stop stop-color="#41D1FF"/>
<stop offset="1" stop-color="#786CEB"/>
</linearGradient>
</defs>
</svg>



