<svg width="335" height="47" viewBox="0 0 335 47" fill="none" xmlns="http://www.w3.org/2000/svg">
<path d="M91.2884 17.4H95.8604C97.4204 17.4 98.5784 17.766 99.3344 18.498C100.09 19.218 100.468 20.34 100.468 21.864V25.536C100.468 27.06 100.09 28.188 99.3344 28.92C98.5784 29.64 97.4204 30 95.8604 30H91.2884V27.714H92.4764V19.668H91.2884V17.4ZM95.8604 27.732C96.6884 27.732 97.2644 27.54 97.5884 27.156C97.9244 26.76 98.0924 26.148 98.0924 25.32V21.864C98.0924 21.144 97.9244 20.598 97.5884 20.226C97.2644 19.854 96.6884 19.668 95.8604 19.668H94.8524V27.732H95.8604ZM112.534 25.644C112.534 26.388 112.408 27.048 112.156 27.624C111.904 28.188 111.562 28.668 111.13 29.064C110.698 29.448 110.2 29.742 109.636 29.946C109.084 30.15 108.502 30.252 107.89 30.252C107.278 30.252 106.69 30.15 106.126 29.946C105.574 29.742 105.082 29.448 104.65 29.064C104.218 28.668 103.876 28.188 103.624 27.624C103.372 27.048 103.246 26.388 103.246 25.644V25.428C103.246 24.696 103.372 24.048 103.624 23.484C103.876 22.908 104.218 22.422 104.65 22.026C105.082 21.63 105.574 21.33 106.126 21.126C106.69 20.922 107.278 20.82 107.89 20.82C108.502 20.82 109.084 20.922 109.636 21.126C110.2 21.33 110.698 21.63 111.13 22.026C111.562 22.422 111.904 22.908 112.156 23.484C112.408 24.048 112.534 24.696 112.534 25.428V25.644ZM107.89 28.092C108.214 28.092 108.52 28.038 108.808 27.93C109.096 27.822 109.348 27.666 109.564 27.462C109.78 27.258 109.948 27.012 110.068 26.724C110.2 26.424 110.266 26.088 110.266 25.716V25.356C110.266 24.984 110.2 24.654 110.068 24.366C109.948 24.066 109.78 23.814 109.564 23.61C109.348 23.406 109.096 23.25 108.808 23.142C108.52 23.034 108.214 22.98 107.89 22.98C107.566 22.98 107.26 23.034 106.972 23.142C106.684 23.25 106.432 23.406 106.216 23.61C106 23.814 105.826 24.066 105.694 24.366C105.574 24.654 105.514 24.984 105.514 25.356V25.716C105.514 26.088 105.574 26.424 105.694 26.724C105.826 27.012 106 27.258 106.216 27.462C106.432 27.666 106.684 27.822 106.972 27.93C107.26 28.038 107.566 28.092 107.89 28.092ZM127.377 21.072H130.023V17.4H132.291V21.072H135.513V23.232H132.291V27.3C132.291 27.66 132.453 27.84 132.777 27.84H135.189V30H131.409C131.001 30 130.665 29.868 130.401 29.604C130.149 29.34 130.023 29.004 130.023 28.596V23.232H127.377V21.072ZM141.854 30H139.586V17.4H141.854V22.512H142.178C142.406 21.972 142.742 21.558 143.186 21.27C143.63 20.97 144.176 20.82 144.824 20.82C145.268 20.82 145.676 20.892 146.048 21.036C146.42 21.18 146.744 21.396 147.02 21.684C147.296 21.972 147.512 22.344 147.668 22.8C147.824 23.244 147.902 23.772 147.902 24.384V30H145.634V24.924C145.634 24.288 145.478 23.79 145.166 23.43C144.866 23.058 144.428 22.872 143.852 22.872C143.18 22.872 142.676 23.1 142.34 23.556C142.016 24 141.854 24.6 141.854 25.356V30ZM151.634 27.84H154.658V23.232H151.85V21.072H156.926V27.84H159.518V30H151.634V27.84ZM157.484 18.426C157.484 18.666 157.436 18.894 157.34 19.11C157.256 19.314 157.136 19.494 156.98 19.65C156.824 19.794 156.638 19.914 156.422 20.01C156.218 20.094 156.002 20.136 155.774 20.136C155.534 20.136 155.312 20.094 155.108 20.01C154.904 19.914 154.724 19.794 154.568 19.65C154.412 19.494 154.286 19.314 154.19 19.11C154.106 18.894 154.064 18.666 154.064 18.426C154.064 18.186 154.106 17.964 154.19 17.76C154.286 17.544 154.412 17.364 154.568 17.22C154.724 17.064 154.904 16.944 155.108 16.86C155.312 16.764 155.534 16.716 155.774 16.716C156.002 16.716 156.218 16.764 156.422 16.86C156.638 16.944 156.824 17.064 156.98 17.22C157.136 17.364 157.256 17.544 157.34 17.76C157.436 17.964 157.484 18.186 157.484 18.426ZM166.237 23.592C166.237 23.88 166.387 24.09 166.687 24.222C166.987 24.342 167.533 24.444 168.325 24.528C169.237 24.624 169.981 24.9 170.557 25.356C171.133 25.8 171.421 26.424 171.421 27.228V27.336C171.421 28.224 171.097 28.932 170.449 29.46C169.801 29.988 168.889 30.252 167.713 30.252C167.017 30.252 166.423 30.162 165.931 29.982C165.439 29.802 165.031 29.58 164.707 29.316C164.383 29.04 164.131 28.74 163.951 28.416C163.783 28.08 163.669 27.756 163.609 27.444L165.697 26.76C165.793 27.144 165.991 27.48 166.291 27.768C166.603 28.056 167.077 28.2 167.713 28.2C168.277 28.2 168.661 28.116 168.865 27.948C169.081 27.768 169.189 27.576 169.189 27.372C169.189 27.252 169.159 27.144 169.099 27.048C169.051 26.94 168.955 26.844 168.811 26.76C168.667 26.664 168.469 26.586 168.217 26.526C167.977 26.466 167.671 26.418 167.299 26.382C166.291 26.298 165.487 26.04 164.887 25.608C164.299 25.164 164.005 24.516 164.005 23.664V23.556C164.005 23.112 164.101 22.722 164.293 22.386C164.485 22.05 164.737 21.768 165.049 21.54C165.361 21.3 165.721 21.12 166.129 21C166.537 20.88 166.957 20.82 167.389 20.82C167.953 20.82 168.439 20.892 168.847 21.036C169.267 21.168 169.621 21.348 169.909 21.576C170.197 21.792 170.431 22.038 170.611 22.314C170.791 22.578 170.929 22.836 171.025 23.088L168.973 23.916C168.865 23.592 168.679 23.34 168.415 23.16C168.151 22.968 167.809 22.872 167.389 22.872C167.005 22.872 166.717 22.944 166.525 23.088C166.333 23.22 166.237 23.388 166.237 23.592ZM187.182 27.84H190.314V19.56H187.29V17.4H192.582V27.84H195.498V30H187.182V27.84ZM204.936 28.704C204.696 29.268 204.36 29.67 203.928 29.91C203.496 30.138 202.992 30.252 202.416 30.252C201.876 30.252 201.366 30.15 200.886 29.946C200.418 29.742 200.004 29.442 199.644 29.046C199.284 28.65 198.996 28.17 198.78 27.606C198.576 27.042 198.474 26.4 198.474 25.68V25.392C198.474 24.684 198.576 24.048 198.78 23.484C198.984 22.92 199.26 22.44 199.608 22.044C199.956 21.648 200.358 21.348 200.814 21.144C201.282 20.928 201.78 20.82 202.308 20.82C202.944 20.82 203.454 20.928 203.838 21.144C204.234 21.36 204.546 21.696 204.774 22.152H205.098V21.072H207.366V27.3C207.366 27.66 207.528 27.84 207.852 27.84H208.194V30H206.646C206.238 30 205.902 29.88 205.638 29.64C205.386 29.4 205.26 29.088 205.26 28.704H204.936ZM202.92 28.092C203.58 28.092 204.108 27.876 204.504 27.444C204.9 27 205.098 26.4 205.098 25.644V25.428C205.098 24.672 204.9 24.078 204.504 23.646C204.108 23.202 203.58 22.98 202.92 22.98C202.26 22.98 201.732 23.202 201.336 23.646C200.94 24.078 200.742 24.672 200.742 25.428V25.644C200.742 26.4 200.94 27 201.336 27.444C201.732 27.876 202.26 28.092 202.92 28.092ZM210.827 21.072H213.473V17.4H215.741V21.072H218.963V23.232H215.741V27.3C215.741 27.66 215.903 27.84 216.227 27.84H218.639V30H214.859C214.451 30 214.115 29.868 213.851 29.604C213.599 29.34 213.473 29.004 213.473 28.596V23.232H210.827V21.072ZM224.999 26.274C225.011 26.538 225.071 26.784 225.179 27.012C225.299 27.228 225.455 27.42 225.647 27.588C225.851 27.744 226.079 27.87 226.331 27.966C226.595 28.05 226.871 28.092 227.159 28.092C227.723 28.092 228.155 27.996 228.455 27.804C228.755 27.6 228.971 27.36 229.103 27.084L231.047 28.164C230.939 28.392 230.789 28.632 230.597 28.884C230.405 29.124 230.153 29.346 229.841 29.55C229.541 29.754 229.169 29.922 228.725 30.054C228.293 30.186 227.783 30.252 227.195 30.252C226.523 30.252 225.911 30.144 225.359 29.928C224.807 29.712 224.327 29.4 223.919 28.992C223.523 28.584 223.211 28.086 222.983 27.498C222.767 26.91 222.659 26.244 222.659 25.5V25.392C222.659 24.708 222.773 24.084 223.001 23.52C223.241 22.956 223.565 22.476 223.973 22.08C224.381 21.684 224.855 21.378 225.395 21.162C225.947 20.934 226.535 20.82 227.159 20.82C227.927 20.82 228.587 20.958 229.139 21.234C229.691 21.498 230.147 21.84 230.507 22.26C230.867 22.668 231.131 23.124 231.299 23.628C231.467 24.12 231.551 24.6 231.551 25.068V26.274H224.999ZM227.141 22.872C226.565 22.872 226.097 23.022 225.737 23.322C225.377 23.61 225.143 23.946 225.035 24.33H229.247C229.175 23.91 228.947 23.562 228.563 23.286C228.191 23.01 227.717 22.872 227.141 22.872ZM234.49 21.072H238.27V22.368H238.594C238.762 21.876 239.044 21.498 239.44 21.234C239.848 20.958 240.334 20.82 240.898 20.82C241.786 20.82 242.5 21.102 243.04 21.666C243.58 22.218 243.85 23.064 243.85 24.204V24.6L241.51 24.816V24.564C241.51 24.072 241.384 23.682 241.132 23.394C240.88 23.094 240.502 22.944 239.998 22.944C239.494 22.944 239.098 23.118 238.81 23.466C238.522 23.814 238.378 24.312 238.378 24.96V27.84H240.43V30H234.274V27.84H236.11V23.232H234.49V21.072Z" fill="url(#paint0_linear)"/>
<rect x="1" y="1" width="333" height="45" rx="4" stroke="url(#paint1_linear)" stroke-width="2"/>
<defs>
<linearGradient id="paint0_linear" x1="85.7864" y1="37" x2="110.858" y2="-37.0489" gradientUnits="userSpaceOnUse">
<stop stop-color="#41D1FF"/>
<stop offset="1" stop-color="#786CEB"/>
</linearGradient>
<linearGradient id="paint1_linear" x1="-9.10679" y1="47" x2="27.3623" y2="-86.7319" gradientUnits="userSpaceOnUse">
<stop stop-color="#41D1FF"/>
<stop offset="1" stop-color="#786CEB"/>
</linearGradient>
</defs>
</svg>
