<svg width="53" height="14" viewBox="0 0 53 14" fill="none" xmlns="http://www.w3.org/2000/svg">
<path d="M0.265203 1.2H6.5372V2.964H2.1132V5.204H6.4532V6.968H2.1132V11H0.265203V1.2ZM9.06147 4.056H12.0015V5.064H12.2535C12.3841 4.68133 12.6035 4.38733 12.9115 4.182C13.2288 3.96733 13.6068 3.86 14.0455 3.86C14.7361 3.86 15.2915 4.07933 15.7115 4.518C16.1315 4.94733 16.3415 5.60533 16.3415 6.492V6.8L14.5215 6.968V6.772C14.5215 6.38933 14.4235 6.086 14.2275 5.862C14.0315 5.62867 13.7375 5.512 13.3455 5.512C12.9535 5.512 12.6455 5.64733 12.4215 5.918C12.1975 6.18867 12.0855 6.576 12.0855 7.08V9.32H13.6815V11H8.89347V9.32H10.3215V5.736H9.06147V4.056ZM18.7957 9.32H21.1477V5.736H18.9637V4.056H22.9117V9.32H24.9277V11H18.7957V9.32ZM23.3457 1.998C23.3457 2.18467 23.3084 2.362 23.2337 2.53C23.1684 2.68867 23.0751 2.82867 22.9537 2.95C22.8324 3.062 22.6877 3.15533 22.5197 3.23C22.3611 3.29533 22.1931 3.328 22.0157 3.328C21.8291 3.328 21.6564 3.29533 21.4977 3.23C21.3391 3.15533 21.1991 3.062 21.0777 2.95C20.9564 2.82867 20.8584 2.68867 20.7837 2.53C20.7184 2.362 20.6857 2.18467 20.6857 1.998C20.6857 1.81133 20.7184 1.63867 20.7837 1.48C20.8584 1.312 20.9564 1.172 21.0777 1.06C21.1991 0.938666 21.3391 0.845333 21.4977 0.78C21.6564 0.705333 21.8291 0.668 22.0157 0.668C22.1931 0.668 22.3611 0.705333 22.5197 0.78C22.6877 0.845333 22.8324 0.938666 22.9537 1.06C23.0751 1.172 23.1684 1.312 23.2337 1.48C23.3084 1.63867 23.3457 1.81133 23.3457 1.998ZM32.926 9.992H32.674C32.5993 10.1507 32.506 10.3047 32.394 10.454C32.2913 10.594 32.1513 10.72 31.974 10.832C31.806 10.944 31.6007 11.0327 31.358 11.098C31.1247 11.1633 30.84 11.196 30.504 11.196C30.0747 11.196 29.6733 11.1213 29.3 10.972C28.936 10.8133 28.614 10.5847 28.334 10.286C28.0633 9.978 27.8487 9.60467 27.69 9.166C27.5407 8.72733 27.466 8.22333 27.466 7.654V7.402C27.466 6.842 27.5453 6.34267 27.704 5.904C27.872 5.46533 28.096 5.09667 28.376 4.798C28.6653 4.49 28.9967 4.25667 29.37 4.098C29.7527 3.93933 30.154 3.86 30.574 3.86C31.134 3.86 31.5773 3.96733 31.904 4.182C32.2307 4.38733 32.4873 4.68133 32.674 5.064H32.926V1.2H34.69V11H32.926V9.992ZM31.078 9.516C31.6287 9.516 32.072 9.34333 32.408 8.998C32.7533 8.64333 32.926 8.18133 32.926 7.612V7.444C32.926 6.87467 32.7533 6.41733 32.408 6.072C32.072 5.71733 31.6287 5.54 31.078 5.54C30.5273 5.54 30.0793 5.71267 29.734 6.058C29.398 6.394 29.23 6.856 29.23 7.444V7.612C29.23 8.2 29.398 8.66667 29.734 9.012C30.0793 9.348 30.5273 9.516 31.078 9.516ZM41.7083 9.992C41.5216 10.4307 41.2603 10.7433 40.9243 10.93C40.5883 11.1073 40.1963 11.196 39.7483 11.196C39.3283 11.196 38.9316 11.1167 38.5583 10.958C38.1943 10.7993 37.8723 10.566 37.5923 10.258C37.3123 9.95 37.0883 9.57667 36.9203 9.138C36.7616 8.69933 36.6823 8.2 36.6823 7.64V7.416C36.6823 6.86533 36.7616 6.37067 36.9203 5.932C37.0789 5.49333 37.2936 5.12 37.5643 4.812C37.8349 4.504 38.1476 4.27067 38.5023 4.112C38.8663 3.944 39.2536 3.86 39.6643 3.86C40.1589 3.86 40.5556 3.944 40.8543 4.112C41.1623 4.28 41.4049 4.54133 41.5823 4.896H41.8343V4.056H43.5983V8.9C43.5983 9.18 43.7243 9.32 43.9763 9.32H44.2423V11H43.0383C42.7209 11 42.4596 10.9067 42.2543 10.72C42.0583 10.5333 41.9603 10.2907 41.9603 9.992H41.7083ZM40.1403 9.516C40.6536 9.516 41.0643 9.348 41.3723 9.012C41.6803 8.66667 41.8343 8.2 41.8343 7.612V7.444C41.8343 6.856 41.6803 6.394 41.3723 6.058C41.0643 5.71267 40.6536 5.54 40.1403 5.54C39.6269 5.54 39.2163 5.71267 38.9083 6.058C38.6003 6.394 38.4463 6.856 38.4463 7.444V7.612C38.4463 8.2 38.6003 8.66667 38.9083 9.012C39.2163 9.348 39.6269 9.516 40.1403 9.516ZM51.1905 4.056H52.9545V12.708C52.9545 13.0253 52.8519 13.2867 52.6465 13.492C52.4505 13.6973 52.1939 13.8 51.8765 13.8H47.7465V12.12H50.8125C51.0645 12.12 51.1905 11.98 51.1905 11.7V9.992H50.9385C50.6305 10.7947 49.9679 11.196 48.9505 11.196C48.6052 11.196 48.2832 11.14 47.9845 11.028C47.6859 10.916 47.4245 10.7433 47.2005 10.51C46.9765 10.2767 46.7992 9.98733 46.6685 9.642C46.5472 9.28733 46.4865 8.872 46.4865 8.396V4.056H48.2505V8.032C48.2505 8.52667 48.3672 8.914 48.6005 9.194C48.8339 9.46467 49.1839 9.6 49.6505 9.6C50.1825 9.6 50.5699 9.432 50.8125 9.096C51.0645 8.75067 51.1905 8.284 51.1905 7.696V4.056Z" fill="url(#paint0_linear)"/>
<defs>
<linearGradient id="paint0_linear" x1="-2.01165" y1="15" x2="25.1382" y2="-34.2203" gradientUnits="userSpaceOnUse">
<stop stop-color="#41D1FF"/>
<stop offset="1" stop-color="#786CEB"/>
</linearGradient>
</defs>
</svg>