<svg width="238" height="18" viewBox="0 0 238 18" fill="none" xmlns="http://www.w3.org/2000/svg">
<path d="M10.44 14H6.3L5.724 4.424V2.696H5.292V4.424L4.716 14H0.576L0.144 1.4H2.304L2.592 10.976V12.596H3.024V10.976L3.6 1.4H7.416L7.992 10.976V12.596H8.424V10.976L8.712 1.4H10.872L10.44 14ZM15.6295 14H13.3615V1.4H15.6295V6.512H15.9535C16.1815 5.972 16.5175 5.558 16.9615 5.27C17.4055 4.97 17.9515 4.82 18.5995 4.82C19.0435 4.82 19.4515 4.892 19.8235 5.036C20.1955 5.18 20.5195 5.396 20.7955 5.684C21.0715 5.972 21.2875 6.344 21.4435 6.8C21.5995 7.244 21.6775 7.772 21.6775 8.384V14H19.4095V8.924C19.4095 8.288 19.2535 7.79 18.9415 7.43C18.6415 7.058 18.2035 6.872 17.6275 6.872C16.9555 6.872 16.4515 7.1 16.1155 7.556C15.7915 8 15.6295 8.6 15.6295 9.356V14ZM31.025 12.704C30.785 13.268 30.449 13.67 30.017 13.91C29.585 14.138 29.081 14.252 28.505 14.252C27.965 14.252 27.455 14.15 26.975 13.946C26.507 13.742 26.093 13.442 25.733 13.046C25.373 12.65 25.085 12.17 24.869 11.606C24.665 11.042 24.563 10.4 24.563 9.68V9.392C24.563 8.684 24.665 8.048 24.869 7.484C25.073 6.92 25.349 6.44 25.697 6.044C26.045 5.648 26.447 5.348 26.903 5.144C27.371 4.928 27.869 4.82 28.397 4.82C29.033 4.82 29.543 4.928 29.927 5.144C30.323 5.36 30.635 5.696 30.863 6.152H31.187V5.072H33.455V11.3C33.455 11.66 33.617 11.84 33.941 11.84H34.283V14H32.735C32.327 14 31.991 13.88 31.727 13.64C31.475 13.4 31.349 13.088 31.349 12.704H31.025ZM29.009 12.092C29.669 12.092 30.197 11.876 30.593 11.444C30.989 11 31.187 10.4 31.187 9.644V9.428C31.187 8.672 30.989 8.078 30.593 7.646C30.197 7.202 29.669 6.98 29.009 6.98C28.349 6.98 27.821 7.202 27.425 7.646C27.029 8.078 26.831 8.672 26.831 9.428V9.644C26.831 10.4 27.029 11 27.425 11.444C27.821 11.876 28.349 12.092 29.009 12.092ZM36.9165 5.072H39.5625V1.4H41.8305V5.072H45.0525V7.232H41.8305V11.3C41.8305 11.66 41.9925 11.84 42.3165 11.84H44.7285V14H40.9485C40.5405 14 40.2045 13.868 39.9405 13.604C39.6885 13.34 39.5625 13.004 39.5625 12.596V7.232H36.9165V5.072ZM51.4839 2.84C51.4839 2.612 51.5259 2.396 51.6099 2.192C51.7059 1.976 51.8319 1.796 51.9879 1.652C52.1439 1.496 52.3239 1.376 52.5279 1.292C52.7319 1.196 52.9539 1.148 53.1939 1.148C53.4219 1.148 53.6379 1.196 53.8419 1.292C54.0579 1.376 54.2439 1.496 54.3999 1.652C54.5559 1.796 54.6759 1.976 54.7599 2.192C54.8559 2.396 54.9039 2.612 54.9039 2.84V5.036C54.9039 5.492 54.7479 5.876 54.4359 6.188C54.1359 6.5 53.7579 6.656 53.3019 6.656H52.1499V5.252H53.0139C53.3379 5.252 53.4999 5.072 53.4999 4.712V4.496C53.4039 4.532 53.3019 4.55 53.1939 4.55C52.9539 4.55 52.7319 4.508 52.5279 4.424C52.3239 4.328 52.1439 4.202 51.9879 4.046C51.8319 3.89 51.7059 3.71 51.6099 3.506C51.5259 3.302 51.4839 3.08 51.4839 2.84ZM63.8554 7.592C63.8554 7.88 64.0054 8.09 64.3054 8.222C64.6054 8.342 65.1514 8.444 65.9434 8.528C66.8554 8.624 67.5994 8.9 68.1754 9.356C68.7514 9.8 69.0394 10.424 69.0394 11.228V11.336C69.0394 12.224 68.7154 12.932 68.0674 13.46C67.4194 13.988 66.5074 14.252 65.3314 14.252C64.6354 14.252 64.0414 14.162 63.5494 13.982C63.0574 13.802 62.6494 13.58 62.3254 13.316C62.0014 13.04 61.7494 12.74 61.5694 12.416C61.4014 12.08 61.2874 11.756 61.2274 11.444L63.3154 10.76C63.4114 11.144 63.6094 11.48 63.9094 11.768C64.2214 12.056 64.6954 12.2 65.3314 12.2C65.8954 12.2 66.2794 12.116 66.4834 11.948C66.6994 11.768 66.8074 11.576 66.8074 11.372C66.8074 11.252 66.7774 11.144 66.7174 11.048C66.6694 10.94 66.5734 10.844 66.4294 10.76C66.2854 10.664 66.0874 10.586 65.8354 10.526C65.5954 10.466 65.2894 10.418 64.9174 10.382C63.9094 10.298 63.1054 10.04 62.5054 9.608C61.9174 9.164 61.6234 8.516 61.6234 7.664V7.556C61.6234 7.112 61.7194 6.722 61.9114 6.386C62.1034 6.05 62.3554 5.768 62.6674 5.54C62.9794 5.3 63.3394 5.12 63.7474 5C64.1554 4.88 64.5754 4.82 65.0074 4.82C65.5714 4.82 66.0574 4.892 66.4654 5.036C66.8854 5.168 67.2394 5.348 67.5274 5.576C67.8154 5.792 68.0494 6.038 68.2294 6.314C68.4094 6.578 68.5474 6.836 68.6434 7.088L66.5914 7.916C66.4834 7.592 66.2974 7.34 66.0334 7.16C65.7694 6.968 65.4274 6.872 65.0074 6.872C64.6234 6.872 64.3354 6.944 64.1434 7.088C63.9514 7.22 63.8554 7.388 63.8554 7.592ZM84.5484 1.4H86.9244V6.548H90.9924V1.4H93.3684V14H90.9924V8.816H86.9244V14H84.5484V1.4ZM102.554 12.704C102.314 13.268 101.978 13.67 101.546 13.91C101.114 14.138 100.61 14.252 100.034 14.252C99.4939 14.252 98.9839 14.15 98.5039 13.946C98.0359 13.742 97.6219 13.442 97.2619 13.046C96.9019 12.65 96.6139 12.17 96.3979 11.606C96.1939 11.042 96.0919 10.4 96.0919 9.68V9.392C96.0919 8.684 96.1939 8.048 96.3979 7.484C96.6019 6.92 96.8779 6.44 97.2259 6.044C97.5739 5.648 97.9759 5.348 98.4319 5.144C98.8999 4.928 99.3979 4.82 99.9259 4.82C100.562 4.82 101.072 4.928 101.456 5.144C101.852 5.36 102.164 5.696 102.392 6.152H102.716V5.072H104.984V11.3C104.984 11.66 105.146 11.84 105.47 11.84H105.812V14H104.264C103.856 14 103.52 13.88 103.256 13.64C103.004 13.4 102.878 13.088 102.878 12.704H102.554ZM100.538 12.092C101.198 12.092 101.726 11.876 102.122 11.444C102.518 11 102.716 10.4 102.716 9.644V9.428C102.716 8.672 102.518 8.078 102.122 7.646C101.726 7.202 101.198 6.98 100.538 6.98C99.8779 6.98 99.3499 7.202 98.9539 7.646C98.5579 8.078 98.3599 8.672 98.3599 9.428V9.644C98.3599 10.4 98.5579 11 98.9539 11.444C99.3499 11.876 99.8779 12.092 100.538 12.092ZM110.497 17.6H108.229V5.072H110.497V6.368H110.821C111.061 5.876 111.409 5.498 111.865 5.234C112.321 4.958 112.903 4.82 113.611 4.82C114.139 4.82 114.637 4.922 115.105 5.126C115.585 5.33 115.999 5.63 116.347 6.026C116.707 6.41 116.989 6.884 117.193 7.448C117.409 8.012 117.517 8.654 117.517 9.374V9.698C117.517 10.43 117.415 11.078 117.211 11.642C117.007 12.206 116.731 12.686 116.383 13.082C116.035 13.466 115.621 13.76 115.141 13.964C114.673 14.156 114.163 14.252 113.611 14.252C113.203 14.252 112.849 14.21 112.549 14.126C112.249 14.042 111.985 13.928 111.757 13.784C111.541 13.64 111.355 13.478 111.199 13.298C111.055 13.106 110.929 12.908 110.821 12.704H110.497V17.6ZM112.873 12.092C113.581 12.092 114.151 11.876 114.583 11.444C115.027 11 115.249 10.4 115.249 9.644V9.428C115.249 8.672 115.027 8.078 114.583 7.646C114.151 7.202 113.581 6.98 112.873 6.98C112.165 6.98 111.589 7.208 111.145 7.664C110.713 8.108 110.497 8.696 110.497 9.428V9.644C110.497 10.376 110.713 10.97 111.145 11.426C111.589 11.87 112.165 12.092 112.873 12.092ZM122.419 17.6H120.151V5.072H122.419V6.368H122.743C122.983 5.876 123.331 5.498 123.787 5.234C124.243 4.958 124.825 4.82 125.533 4.82C126.061 4.82 126.559 4.922 127.027 5.126C127.507 5.33 127.921 5.63 128.269 6.026C128.629 6.41 128.911 6.884 129.115 7.448C129.331 8.012 129.439 8.654 129.439 9.374V9.698C129.439 10.43 129.337 11.078 129.133 11.642C128.929 12.206 128.653 12.686 128.305 13.082C127.957 13.466 127.543 13.76 127.063 13.964C126.595 14.156 126.085 14.252 125.533 14.252C125.125 14.252 124.771 14.21 124.471 14.126C124.171 14.042 123.907 13.928 123.679 13.784C123.463 13.64 123.277 13.478 123.121 13.298C122.977 13.106 122.851 12.908 122.743 12.704H122.419V17.6ZM124.795 12.092C125.503 12.092 126.073 11.876 126.505 11.444C126.949 11 127.171 10.4 127.171 9.644V9.428C127.171 8.672 126.949 8.078 126.505 7.646C126.073 7.202 125.503 6.98 124.795 6.98C124.087 6.98 123.511 7.208 123.067 7.664C122.635 8.108 122.419 8.696 122.419 9.428V9.644C122.419 10.376 122.635 10.97 123.067 11.426C123.511 11.87 124.087 12.092 124.795 12.092ZM134.538 10.274C134.55 10.538 134.61 10.784 134.718 11.012C134.838 11.228 134.994 11.42 135.186 11.588C135.39 11.744 135.618 11.87 135.87 11.966C136.134 12.05 136.41 12.092 136.698 12.092C137.262 12.092 137.694 11.996 137.994 11.804C138.294 11.6 138.51 11.36 138.642 11.084L140.586 12.164C140.478 12.392 140.328 12.632 140.136 12.884C139.944 13.124 139.692 13.346 139.38 13.55C139.08 13.754 138.708 13.922 138.264 14.054C137.832 14.186 137.322 14.252 136.734 14.252C136.062 14.252 135.45 14.144 134.898 13.928C134.346 13.712 133.866 13.4 133.458 12.992C133.062 12.584 132.75 12.086 132.522 11.498C132.306 10.91 132.198 10.244 132.198 9.5V9.392C132.198 8.708 132.312 8.084 132.54 7.52C132.78 6.956 133.104 6.476 133.512 6.08C133.92 5.684 134.394 5.378 134.934 5.162C135.486 4.934 136.074 4.82 136.698 4.82C137.466 4.82 138.126 4.958 138.678 5.234C139.23 5.498 139.686 5.84 140.046 6.26C140.406 6.668 140.67 7.124 140.838 7.628C141.006 8.12 141.09 8.6 141.09 9.068V10.274H134.538ZM136.68 6.872C136.104 6.872 135.636 7.022 135.276 7.322C134.916 7.61 134.682 7.946 134.574 8.33H138.786C138.714 7.91 138.486 7.562 138.102 7.286C137.73 7.01 137.256 6.872 136.68 6.872ZM146.73 14H144.462V5.072H146.73V6.404H147.054C147.258 5.9 147.588 5.51 148.044 5.234C148.5 4.958 149.034 4.82 149.646 4.82C150.078 4.82 150.48 4.892 150.852 5.036C151.236 5.168 151.572 5.378 151.86 5.666C152.148 5.954 152.37 6.32 152.526 6.764C152.694 7.208 152.778 7.736 152.778 8.348V14H150.51V8.924C150.51 8.288 150.354 7.79 150.042 7.43C149.742 7.058 149.304 6.872 148.728 6.872C148.056 6.872 147.552 7.1 147.216 7.556C146.892 8 146.73 8.6 146.73 9.356V14ZM156.545 11.84H159.569V7.232H156.761V5.072H161.837V11.84H164.429V14H156.545V11.84ZM162.395 2.426C162.395 2.666 162.347 2.894 162.251 3.11C162.167 3.314 162.047 3.494 161.891 3.65C161.735 3.794 161.549 3.914 161.333 4.01C161.129 4.094 160.913 4.136 160.685 4.136C160.445 4.136 160.223 4.094 160.019 4.01C159.815 3.914 159.635 3.794 159.479 3.65C159.323 3.494 159.197 3.314 159.101 3.11C159.017 2.894 158.975 2.666 158.975 2.426C158.975 2.186 159.017 1.964 159.101 1.76C159.197 1.544 159.323 1.364 159.479 1.22C159.635 1.064 159.815 0.943999 160.019 0.86C160.223 0.763999 160.445 0.715999 160.685 0.715999C160.913 0.715999 161.129 0.763999 161.333 0.86C161.549 0.943999 161.735 1.064 161.891 1.22C162.047 1.364 162.167 1.544 162.251 1.76C162.347 1.964 162.395 2.186 162.395 2.426ZM170.573 14H168.305V5.072H170.573V6.404H170.897C171.101 5.9 171.431 5.51 171.887 5.234C172.343 4.958 172.877 4.82 173.489 4.82C173.921 4.82 174.323 4.892 174.695 5.036C175.079 5.168 175.415 5.378 175.703 5.666C175.991 5.954 176.213 6.32 176.369 6.764C176.537 7.208 176.621 7.736 176.621 8.348V14H174.353V8.924C174.353 8.288 174.197 7.79 173.885 7.43C173.585 7.058 173.147 6.872 172.571 6.872C171.899 6.872 171.395 7.1 171.059 7.556C170.735 8 170.573 8.6 170.573 9.356V14ZM186.598 12.704H186.274C186.178 12.908 186.058 13.106 185.914 13.298C185.782 13.478 185.602 13.64 185.374 13.784C185.158 13.928 184.894 14.042 184.582 14.126C184.282 14.21 183.916 14.252 183.484 14.252C182.932 14.252 182.416 14.156 181.936 13.964C181.468 13.76 181.054 13.466 180.694 13.082C180.346 12.686 180.07 12.206 179.866 11.642C179.674 11.078 179.578 10.43 179.578 9.698V9.374C179.578 8.654 179.68 8.012 179.884 7.448C180.1 6.884 180.388 6.41 180.748 6.026C181.12 5.63 181.546 5.33 182.026 5.126C182.518 4.922 183.034 4.82 183.574 4.82C184.294 4.82 184.864 4.958 185.284 5.234C185.704 5.498 186.034 5.876 186.274 6.368H186.598V5.072H188.866V16.196C188.866 16.604 188.734 16.94 188.47 17.204C188.218 17.468 187.888 17.6 187.48 17.6H181.468V15.44H186.112C186.436 15.44 186.598 15.26 186.598 14.9V12.704ZM184.222 12.092C184.93 12.092 185.5 11.87 185.932 11.426C186.376 10.97 186.598 10.376 186.598 9.644V9.428C186.598 8.696 186.376 8.108 185.932 7.664C185.5 7.208 184.93 6.98 184.222 6.98C183.514 6.98 182.938 7.202 182.494 7.646C182.062 8.078 181.846 8.672 181.846 9.428V9.644C181.846 10.4 182.062 11 182.494 11.444C182.938 11.876 183.514 12.092 184.222 12.092ZM209.883 12.812H210.207V1.4H212.583V14H207.939L206.463 2.588H206.139V14H203.763V1.4H208.407L209.883 12.812ZM224.739 9.644C224.739 10.388 224.613 11.048 224.361 11.624C224.109 12.188 223.767 12.668 223.335 13.064C222.903 13.448 222.405 13.742 221.841 13.946C221.289 14.15 220.707 14.252 220.095 14.252C219.483 14.252 218.895 14.15 218.331 13.946C217.779 13.742 217.287 13.448 216.855 13.064C216.423 12.668 216.081 12.188 215.829 11.624C215.577 11.048 215.451 10.388 215.451 9.644V9.428C215.451 8.696 215.577 8.048 215.829 7.484C216.081 6.908 216.423 6.422 216.855 6.026C217.287 5.63 217.779 5.33 218.331 5.126C218.895 4.922 219.483 4.82 220.095 4.82C220.707 4.82 221.289 4.922 221.841 5.126C222.405 5.33 222.903 5.63 223.335 6.026C223.767 6.422 224.109 6.908 224.361 7.484C224.613 8.048 224.739 8.696 224.739 9.428V9.644ZM220.095 12.092C220.419 12.092 220.725 12.038 221.013 11.93C221.301 11.822 221.553 11.666 221.769 11.462C221.985 11.258 222.153 11.012 222.273 10.724C222.405 10.424 222.471 10.088 222.471 9.716V9.356C222.471 8.984 222.405 8.654 222.273 8.366C222.153 8.066 221.985 7.814 221.769 7.61C221.553 7.406 221.301 7.25 221.013 7.142C220.725 7.034 220.419 6.98 220.095 6.98C219.771 6.98 219.465 7.034 219.177 7.142C218.889 7.25 218.637 7.406 218.421 7.61C218.205 7.814 218.031 8.066 217.899 8.366C217.779 8.654 217.719 8.984 217.719 9.356V9.716C217.719 10.088 217.779 10.424 217.899 10.724C218.031 11.012 218.205 11.258 218.421 11.462C218.637 11.666 218.889 11.822 219.177 11.93C219.465 12.038 219.771 12.092 220.095 12.092ZM236.66 14H232.736L232.232 7.232V6.152H231.8V7.232L231.296 14H227.372L226.778 5.072H228.866L229.262 11.84V12.92H229.694V11.84L230.144 5.072H233.888L234.338 11.84V12.92H234.77V11.84L235.166 5.072H237.254L236.66 14Z" fill="url(#paint0_linear)"/>
<defs>
<linearGradient id="paint0_linear" x1="-6.4699" y1="21" x2="10.8864" y2="-57.7107" gradientUnits="userSpaceOnUse">
<stop stop-color="#41D1FF"/>
<stop offset="1" stop-color="#786CEB"/>
</linearGradient>
</defs>
</svg>
