<svg width="335" height="42" viewBox="0 0 335 42" fill="none" xmlns="http://www.w3.org/2000/svg">
<rect width="335" height="42" rx="5" fill="#C3C3C3"/>
<path d="M82.7293 26H80.8813V23.06C80.8813 22.836 80.8207 22.654 80.6993 22.514C80.5873 22.374 80.396 22.304 80.1253 22.304H77.9973V26H76.1493V16.2H79.9013C80.4053 16.2 80.8487 16.27 81.2313 16.41C81.614 16.55 81.9313 16.746 82.1833 16.998C82.4447 17.2407 82.6407 17.5253 82.7713 17.852C82.9113 18.1787 82.9813 18.5287 82.9813 18.902V19.238C82.9813 19.6393 82.874 20.0173 82.6593 20.372C82.4447 20.7173 82.1133 20.9833 81.6653 21.17V21.422C81.992 21.4593 82.2487 21.5853 82.4353 21.8C82.6313 22.0147 82.7293 22.2853 82.7293 22.612V26ZM77.9973 20.54H79.7613C80.2093 20.54 80.55 20.4373 80.7833 20.232C81.0167 20.0173 81.1333 19.7187 81.1333 19.336V19.168C81.1333 18.8413 81.0167 18.5613 80.7833 18.328C80.55 18.0853 80.2093 17.964 79.7613 17.964H77.9973V20.54ZM87.0456 23.102C87.0549 23.3073 87.1016 23.4987 87.1856 23.676C87.2789 23.844 87.4003 23.9933 87.5496 24.124C87.7083 24.2453 87.8856 24.3433 88.0816 24.418C88.2869 24.4833 88.5016 24.516 88.7256 24.516C89.1643 24.516 89.5003 24.4413 89.7336 24.292C89.9669 24.1333 90.1349 23.9467 90.2376 23.732L91.7496 24.572C91.6656 24.7493 91.5489 24.936 91.3996 25.132C91.2503 25.3187 91.0543 25.4913 90.8116 25.65C90.5783 25.8087 90.2889 25.9393 89.9436 26.042C89.6076 26.1447 89.2109 26.196 88.7536 26.196C88.2309 26.196 87.7549 26.112 87.3256 25.944C86.8963 25.776 86.5229 25.5333 86.2056 25.216C85.8976 24.8987 85.6549 24.5113 85.4776 24.054C85.3096 23.5967 85.2256 23.0787 85.2256 22.5V22.416C85.2256 21.884 85.3143 21.3987 85.4916 20.96C85.6783 20.5213 85.9303 20.148 86.2476 19.84C86.5649 19.532 86.9336 19.294 87.3536 19.126C87.7829 18.9487 88.2403 18.86 88.7256 18.86C89.3229 18.86 89.8363 18.9673 90.2656 19.182C90.6949 19.3873 91.0496 19.6533 91.3296 19.98C91.6096 20.2973 91.8149 20.652 91.9456 21.044C92.0763 21.4267 92.1416 21.8 92.1416 22.164V23.102H87.0456ZM88.7116 20.456C88.2636 20.456 87.8996 20.5727 87.6196 20.806C87.3396 21.03 87.1576 21.2913 87.0736 21.59H90.3496C90.2936 21.2633 90.1163 20.9927 89.8176 20.778C89.5283 20.5633 89.1596 20.456 88.7116 20.456ZM101.736 26H99.9719V21.128C99.9719 20.932 99.9205 20.7873 99.8179 20.694C99.7245 20.5913 99.5985 20.54 99.4399 20.54C99.2532 20.54 99.1039 20.596 98.9919 20.708C98.8892 20.82 98.8379 20.988 98.8379 21.212V26H97.0739V21.128C97.0739 20.932 97.0179 20.7873 96.9059 20.694C96.8032 20.5913 96.6772 20.54 96.5279 20.54C96.3599 20.54 96.2199 20.596 96.1079 20.708C95.9959 20.82 95.9399 20.988 95.9399 21.212V26H94.1759V19.056H95.9399V19.728H96.1919C96.2479 19.476 96.3739 19.2707 96.5699 19.112C96.7752 18.944 97.0412 18.86 97.3679 18.86C97.6759 18.86 97.9372 18.944 98.1519 19.112C98.3665 19.2707 98.5112 19.476 98.5859 19.728H98.8379C98.9125 19.476 99.0665 19.2707 99.2999 19.112C99.5425 18.944 99.8412 18.86 100.196 18.86C100.663 18.86 101.036 19.0187 101.316 19.336C101.596 19.644 101.736 20.0733 101.736 20.624V26ZM110.84 22.612C110.84 23.1907 110.742 23.704 110.546 24.152C110.35 24.5907 110.084 24.964 109.748 25.272C109.412 25.5707 109.025 25.7993 108.586 25.958C108.157 26.1167 107.704 26.196 107.228 26.196C106.752 26.196 106.295 26.1167 105.856 25.958C105.427 25.7993 105.044 25.5707 104.708 25.272C104.372 24.964 104.106 24.5907 103.91 24.152C103.714 23.704 103.616 23.1907 103.616 22.612V22.444C103.616 21.8747 103.714 21.3707 103.91 20.932C104.106 20.484 104.372 20.106 104.708 19.798C105.044 19.49 105.427 19.2567 105.856 19.098C106.295 18.9393 106.752 18.86 107.228 18.86C107.704 18.86 108.157 18.9393 108.586 19.098C109.025 19.2567 109.412 19.49 109.748 19.798C110.084 20.106 110.35 20.484 110.546 20.932C110.742 21.3707 110.84 21.8747 110.84 22.444V22.612ZM107.228 24.516C107.48 24.516 107.718 24.474 107.942 24.39C108.166 24.306 108.362 24.1847 108.53 24.026C108.698 23.8673 108.829 23.676 108.922 23.452C109.025 23.2187 109.076 22.9573 109.076 22.668V22.388C109.076 22.0987 109.025 21.842 108.922 21.618C108.829 21.3847 108.698 21.1887 108.53 21.03C108.362 20.8713 108.166 20.75 107.942 20.666C107.718 20.582 107.48 20.54 107.228 20.54C106.976 20.54 106.738 20.582 106.514 20.666C106.29 20.75 106.094 20.8713 105.926 21.03C105.758 21.1887 105.623 21.3847 105.52 21.618C105.427 21.842 105.38 22.0987 105.38 22.388V22.668C105.38 22.9573 105.427 23.2187 105.52 23.452C105.623 23.676 105.758 23.8673 105.926 24.026C106.094 24.1847 106.29 24.306 106.514 24.39C106.738 24.474 106.976 24.516 107.228 24.516ZM112.818 19.056H114.722L116.36 25.16H116.612L118.25 19.056H120.154L118.166 26H114.806L112.818 19.056ZM124.135 23.102C124.144 23.3073 124.191 23.4987 124.275 23.676C124.368 23.844 124.489 23.9933 124.639 24.124C124.797 24.2453 124.975 24.3433 125.171 24.418C125.376 24.4833 125.591 24.516 125.815 24.516C126.253 24.516 126.589 24.4413 126.823 24.292C127.056 24.1333 127.224 23.9467 127.327 23.732L128.839 24.572C128.755 24.7493 128.638 24.936 128.489 25.132C128.339 25.3187 128.143 25.4913 127.901 25.65C127.667 25.8087 127.378 25.9393 127.033 26.042C126.697 26.1447 126.3 26.196 125.843 26.196C125.32 26.196 124.844 26.112 124.415 25.944C123.985 25.776 123.612 25.5333 123.295 25.216C122.987 24.8987 122.744 24.5113 122.567 24.054C122.399 23.5967 122.315 23.0787 122.315 22.5V22.416C122.315 21.884 122.403 21.3987 122.581 20.96C122.767 20.5213 123.019 20.148 123.337 19.84C123.654 19.532 124.023 19.294 124.443 19.126C124.872 18.9487 125.329 18.86 125.815 18.86C126.412 18.86 126.925 18.9673 127.355 19.182C127.784 19.3873 128.139 19.6533 128.419 19.98C128.699 20.2973 128.904 20.652 129.035 21.044C129.165 21.4267 129.231 21.8 129.231 22.164V23.102H124.135ZM125.801 20.456C125.353 20.456 124.989 20.5727 124.709 20.806C124.429 21.03 124.247 21.2913 124.163 21.59H127.439C127.383 21.2633 127.205 20.9927 126.907 20.778C126.617 20.5633 126.249 20.456 125.801 20.456ZM141.265 16.2H147.537V17.964H143.113V20.204H147.453V21.968H143.113V26H141.265V16.2ZM150.061 19.056H153.001V20.064H153.253C153.384 19.6813 153.603 19.3873 153.911 19.182C154.229 18.9673 154.607 18.86 155.045 18.86C155.736 18.86 156.291 19.0793 156.711 19.518C157.131 19.9473 157.341 20.6053 157.341 21.492V21.8L155.521 21.968V21.772C155.521 21.3893 155.423 21.086 155.227 20.862C155.031 20.6287 154.737 20.512 154.345 20.512C153.953 20.512 153.645 20.6473 153.421 20.918C153.197 21.1887 153.085 21.576 153.085 22.08V24.32H154.681V26H149.893V24.32H151.321V20.736H150.061V19.056ZM166.474 22.612C166.474 23.1907 166.376 23.704 166.18 24.152C165.984 24.5907 165.718 24.964 165.382 25.272C165.046 25.5707 164.658 25.7993 164.22 25.958C163.79 26.1167 163.338 26.196 162.862 26.196C162.386 26.196 161.928 26.1167 161.49 25.958C161.06 25.7993 160.678 25.5707 160.342 25.272C160.006 24.964 159.74 24.5907 159.544 24.152C159.348 23.704 159.25 23.1907 159.25 22.612V22.444C159.25 21.8747 159.348 21.3707 159.544 20.932C159.74 20.484 160.006 20.106 160.342 19.798C160.678 19.49 161.06 19.2567 161.49 19.098C161.928 18.9393 162.386 18.86 162.862 18.86C163.338 18.86 163.79 18.9393 164.22 19.098C164.658 19.2567 165.046 19.49 165.382 19.798C165.718 20.106 165.984 20.484 166.18 20.932C166.376 21.3707 166.474 21.8747 166.474 22.444V22.612ZM162.862 24.516C163.114 24.516 163.352 24.474 163.576 24.39C163.8 24.306 163.996 24.1847 164.164 24.026C164.332 23.8673 164.462 23.676 164.556 23.452C164.658 23.2187 164.71 22.9573 164.71 22.668V22.388C164.71 22.0987 164.658 21.842 164.556 21.618C164.462 21.3847 164.332 21.1887 164.164 21.03C163.996 20.8713 163.8 20.75 163.576 20.666C163.352 20.582 163.114 20.54 162.862 20.54C162.61 20.54 162.372 20.582 162.148 20.666C161.924 20.75 161.728 20.8713 161.56 21.03C161.392 21.1887 161.256 21.3847 161.154 21.618C161.06 21.842 161.014 22.0987 161.014 22.388V22.668C161.014 22.9573 161.06 23.2187 161.154 23.452C161.256 23.676 161.392 23.8673 161.56 24.026C161.728 24.1847 161.924 24.306 162.148 24.39C162.372 24.474 162.61 24.516 162.862 24.516ZM175.914 26H174.15V21.128C174.15 20.932 174.099 20.7873 173.996 20.694C173.903 20.5913 173.777 20.54 173.618 20.54C173.431 20.54 173.282 20.596 173.17 20.708C173.067 20.82 173.016 20.988 173.016 21.212V26H171.252V21.128C171.252 20.932 171.196 20.7873 171.084 20.694C170.981 20.5913 170.855 20.54 170.706 20.54C170.538 20.54 170.398 20.596 170.286 20.708C170.174 20.82 170.118 20.988 170.118 21.212V26H168.354V19.056H170.118V19.728H170.37C170.426 19.476 170.552 19.2707 170.748 19.112C170.953 18.944 171.219 18.86 171.546 18.86C171.854 18.86 172.115 18.944 172.33 19.112C172.545 19.2707 172.689 19.476 172.764 19.728H173.016C173.091 19.476 173.245 19.2707 173.478 19.112C173.721 18.944 174.019 18.86 174.374 18.86C174.841 18.86 175.214 19.0187 175.494 19.336C175.774 19.644 175.914 20.0733 175.914 20.624V26ZM190.707 24.516C191.061 24.516 191.351 24.4647 191.575 24.362C191.808 24.25 191.985 24.1053 192.107 23.928C192.237 23.7413 192.326 23.5313 192.373 23.298C192.419 23.0553 192.443 22.808 192.443 22.556V22.304H194.291V22.556C194.291 23.7227 193.983 24.6233 193.367 25.258C192.76 25.8833 191.873 26.196 190.707 26.196C189.587 26.196 188.7 25.8553 188.047 25.174C187.393 24.4927 187.067 23.4987 187.067 22.192V20.008C187.067 19.3827 187.151 18.8227 187.319 18.328C187.487 17.824 187.729 17.404 188.047 17.068C188.364 16.7227 188.747 16.4613 189.195 16.284C189.643 16.0973 190.147 16.004 190.707 16.004C191.285 16.004 191.799 16.088 192.247 16.256C192.695 16.424 193.068 16.6667 193.367 16.984C193.675 17.3013 193.903 17.684 194.053 18.132C194.211 18.58 194.291 19.084 194.291 19.644V19.896H192.443V19.644C192.443 19.4107 192.415 19.1773 192.359 18.944C192.303 18.7107 192.209 18.5007 192.079 18.314C191.948 18.1273 191.771 17.978 191.547 17.866C191.323 17.7447 191.043 17.684 190.707 17.684C190.399 17.684 190.133 17.7447 189.909 17.866C189.685 17.978 189.498 18.1367 189.349 18.342C189.199 18.538 189.087 18.7713 189.013 19.042C188.947 19.3033 188.915 19.5787 188.915 19.868V22.332C188.915 22.6493 188.947 22.9433 189.013 23.214C189.078 23.4753 189.181 23.704 189.321 23.9C189.461 24.096 189.643 24.25 189.867 24.362C190.1 24.4647 190.38 24.516 190.707 24.516ZM201.253 24.992C201.066 25.4307 200.805 25.7433 200.469 25.93C200.133 26.1073 199.741 26.196 199.293 26.196C198.873 26.196 198.476 26.1167 198.103 25.958C197.739 25.7993 197.417 25.566 197.137 25.258C196.857 24.95 196.633 24.5767 196.465 24.138C196.306 23.6993 196.227 23.2 196.227 22.64V22.416C196.227 21.8653 196.306 21.3707 196.465 20.932C196.623 20.4933 196.838 20.12 197.109 19.812C197.379 19.504 197.692 19.2707 198.047 19.112C198.411 18.944 198.798 18.86 199.209 18.86C199.703 18.86 200.1 18.944 200.399 19.112C200.707 19.28 200.949 19.5413 201.127 19.896H201.379V19.056H203.143V23.9C203.143 24.18 203.269 24.32 203.521 24.32H203.787V26H202.583C202.265 26 202.004 25.9067 201.799 25.72C201.603 25.5333 201.505 25.2907 201.505 24.992H201.253ZM199.685 24.516C200.198 24.516 200.609 24.348 200.917 24.012C201.225 23.6667 201.379 23.2 201.379 22.612V22.444C201.379 21.856 201.225 21.394 200.917 21.058C200.609 20.7127 200.198 20.54 199.685 20.54C199.171 20.54 198.761 20.7127 198.453 21.058C198.145 21.394 197.991 21.856 197.991 22.444V22.612C197.991 23.2 198.145 23.6667 198.453 24.012C198.761 24.348 199.171 24.516 199.685 24.516ZM205.989 24.32H208.425V17.88H206.073V16.2H210.189V24.32H212.457V26H205.989V24.32ZM216.857 23.102C216.867 23.3073 216.913 23.4987 216.997 23.676C217.091 23.844 217.212 23.9933 217.361 24.124C217.52 24.2453 217.697 24.3433 217.893 24.418C218.099 24.4833 218.313 24.516 218.537 24.516C218.976 24.516 219.312 24.4413 219.545 24.292C219.779 24.1333 219.947 23.9467 220.049 23.732L221.561 24.572C221.477 24.7493 221.361 24.936 221.211 25.132C221.062 25.3187 220.866 25.4913 220.623 25.65C220.39 25.8087 220.101 25.9393 219.755 26.042C219.419 26.1447 219.023 26.196 218.565 26.196C218.043 26.196 217.567 26.112 217.137 25.944C216.708 25.776 216.335 25.5333 216.017 25.216C215.709 24.8987 215.467 24.5113 215.289 24.054C215.121 23.5967 215.037 23.0787 215.037 22.5V22.416C215.037 21.884 215.126 21.3987 215.303 20.96C215.49 20.5213 215.742 20.148 216.059 19.84C216.377 19.532 216.745 19.294 217.165 19.126C217.595 18.9487 218.052 18.86 218.537 18.86C219.135 18.86 219.648 18.9673 220.077 19.182C220.507 19.3873 220.861 19.6533 221.141 19.98C221.421 20.2973 221.627 20.652 221.757 21.044C221.888 21.4267 221.953 21.8 221.953 22.164V23.102H216.857ZM218.523 20.456C218.075 20.456 217.711 20.5727 217.431 20.806C217.151 21.03 216.969 21.2913 216.885 21.59H220.161C220.105 21.2633 219.928 20.9927 219.629 20.778C219.34 20.5633 218.971 20.456 218.523 20.456ZM226.34 26H224.576V19.056H226.34V20.092H226.592C226.75 19.7 227.007 19.3967 227.362 19.182C227.716 18.9673 228.132 18.86 228.608 18.86C228.944 18.86 229.256 18.916 229.546 19.028C229.844 19.1307 230.106 19.294 230.33 19.518C230.554 19.742 230.726 20.0267 230.848 20.372C230.978 20.7173 231.044 21.128 231.044 21.604V26H229.28V22.052C229.28 21.5573 229.158 21.17 228.916 20.89C228.682 20.6007 228.342 20.456 227.894 20.456C227.371 20.456 226.979 20.6333 226.718 20.988C226.466 21.3333 226.34 21.8 226.34 22.388V26ZM238.832 24.992H238.58C238.505 25.1507 238.412 25.3047 238.3 25.454C238.197 25.594 238.057 25.72 237.88 25.832C237.712 25.944 237.507 26.0327 237.264 26.098C237.031 26.1633 236.746 26.196 236.41 26.196C235.981 26.196 235.579 26.1213 235.206 25.972C234.842 25.8133 234.52 25.5847 234.24 25.286C233.969 24.978 233.755 24.6047 233.596 24.166C233.447 23.7273 233.372 23.2233 233.372 22.654V22.402C233.372 21.842 233.451 21.3427 233.61 20.904C233.778 20.4653 234.002 20.0967 234.282 19.798C234.571 19.49 234.903 19.2567 235.276 19.098C235.659 18.9393 236.06 18.86 236.48 18.86C237.04 18.86 237.483 18.9673 237.81 19.182C238.137 19.3873 238.393 19.6813 238.58 20.064H238.832V16.2H240.596V26H238.832V24.992ZM236.984 24.516C237.535 24.516 237.978 24.3433 238.314 23.998C238.659 23.6433 238.832 23.1813 238.832 22.612V22.444C238.832 21.8747 238.659 21.4173 238.314 21.072C237.978 20.7173 237.535 20.54 236.984 20.54C236.433 20.54 235.985 20.7127 235.64 21.058C235.304 21.394 235.136 21.856 235.136 22.444V22.612C235.136 23.2 235.304 23.6667 235.64 24.012C235.985 24.348 236.433 24.516 236.984 24.516ZM247.614 24.992C247.427 25.4307 247.166 25.7433 246.83 25.93C246.494 26.1073 246.102 26.196 245.654 26.196C245.234 26.196 244.837 26.1167 244.464 25.958C244.1 25.7993 243.778 25.566 243.498 25.258C243.218 24.95 242.994 24.5767 242.826 24.138C242.667 23.6993 242.588 23.2 242.588 22.64V22.416C242.588 21.8653 242.667 21.3707 242.826 20.932C242.985 20.4933 243.199 20.12 243.47 19.812C243.741 19.504 244.053 19.2707 244.408 19.112C244.772 18.944 245.159 18.86 245.57 18.86C246.065 18.86 246.461 18.944 246.76 19.112C247.068 19.28 247.311 19.5413 247.488 19.896H247.74V19.056H249.504V23.9C249.504 24.18 249.63 24.32 249.882 24.32H250.148V26H248.944C248.627 26 248.365 25.9067 248.16 25.72C247.964 25.5333 247.866 25.2907 247.866 24.992H247.614ZM246.046 24.516C246.559 24.516 246.97 24.348 247.278 24.012C247.586 23.6667 247.74 23.2 247.74 22.612V22.444C247.74 21.856 247.586 21.394 247.278 21.058C246.97 20.7127 246.559 20.54 246.046 20.54C245.533 20.54 245.122 20.7127 244.814 21.058C244.506 21.394 244.352 21.856 244.352 22.444V22.612C244.352 23.2 244.506 23.6667 244.814 24.012C245.122 24.348 245.533 24.516 246.046 24.516ZM252.056 19.056H254.996V20.064H255.248C255.379 19.6813 255.598 19.3873 255.906 19.182C256.224 18.9673 256.602 18.86 257.04 18.86C257.731 18.86 258.286 19.0793 258.706 19.518C259.126 19.9473 259.336 20.6053 259.336 21.492V21.8L257.516 21.968V21.772C257.516 21.3893 257.418 21.086 257.222 20.862C257.026 20.6287 256.732 20.512 256.34 20.512C255.948 20.512 255.64 20.6473 255.416 20.918C255.192 21.1887 255.08 21.576 255.08 22.08V24.32H256.676V26H251.888V24.32H253.316V20.736H252.056V19.056Z" fill="white"/>
</svg>
