<svg width="73" height="13" viewBox="0 0 73 13" fill="none" xmlns="http://www.w3.org/2000/svg">
<path d="M6.22494 3.196C6.22494 2.804 6.07094 2.46333 5.76294 2.174C5.46427 1.88467 5.0396 1.74 4.48894 1.74C4.02227 1.74 3.6536 1.838 3.38294 2.034C3.11227 2.22067 2.97694 2.47733 2.97694 2.804C2.97694 2.972 3.0096 3.126 3.07494 3.266C3.14027 3.39667 3.25227 3.518 3.41094 3.63C3.57894 3.73267 3.7936 3.826 4.05494 3.91C4.3256 3.994 4.66627 4.07333 5.07694 4.148C6.1036 4.33467 6.8876 4.64733 7.42894 5.086C7.97027 5.52467 8.24094 6.17333 8.24094 7.032V7.2C8.24094 7.65733 8.15694 8.07267 7.98894 8.446C7.83027 8.81 7.59694 9.12267 7.28894 9.384C6.98094 9.64533 6.6076 9.846 6.16894 9.986C5.73027 10.126 5.2356 10.196 4.68494 10.196C4.04094 10.196 3.4716 10.1073 2.97694 9.93C2.4916 9.74333 2.0856 9.49133 1.75894 9.174C1.43227 8.84733 1.18494 8.46933 1.01694 8.04C0.848937 7.60133 0.764937 7.12533 0.764937 6.612V6.192H2.61294V6.528C2.61294 7.116 2.78094 7.58733 3.11694 7.942C3.46227 8.28733 3.99427 8.46 4.71294 8.46C5.27294 8.46 5.68827 8.33867 5.95894 8.096C6.2296 7.85333 6.36494 7.564 6.36494 7.228C6.36494 7.06933 6.33694 6.92 6.28094 6.78C6.22494 6.63067 6.12694 6.5 5.98694 6.388C5.84694 6.26667 5.6556 6.15933 5.41294 6.066C5.17027 5.97267 4.86227 5.89333 4.48894 5.828C3.99427 5.744 3.5416 5.63667 3.13094 5.506C2.72027 5.366 2.36094 5.184 2.05294 4.96C1.75427 4.736 1.52094 4.456 1.35294 4.12C1.18494 3.784 1.10094 3.37333 1.10094 2.888V2.804C1.10094 2.40267 1.18027 2.034 1.33894 1.698C1.50694 1.35267 1.7356 1.054 2.02494 0.802C2.3236 0.55 2.67827 0.354 3.08894 0.213999C3.50894 0.0739993 3.9756 0.00399935 4.48894 0.00399935C5.0676 0.00399935 5.58094 0.0879994 6.02894 0.255999C6.47694 0.414666 6.85027 0.634 7.14894 0.913999C7.45694 1.194 7.6856 1.516 7.83494 1.88C7.9936 2.244 8.07294 2.62667 8.07294 3.028V3.532H6.22494V3.196ZM15.1192 8.992C14.9325 9.43067 14.6712 9.74333 14.3352 9.93C13.9992 10.1073 13.6072 10.196 13.1592 10.196C12.7392 10.196 12.3425 10.1167 11.9692 9.958C11.6052 9.79933 11.2832 9.566 11.0032 9.258C10.7232 8.95 10.4992 8.57667 10.3312 8.138C10.1725 7.69933 10.0932 7.2 10.0932 6.64V6.416C10.0932 5.86533 10.1725 5.37067 10.3312 4.932C10.4899 4.49333 10.7045 4.12 10.9752 3.812C11.2459 3.504 11.5585 3.27067 11.9132 3.112C12.2772 2.944 12.6645 2.86 13.0752 2.86C13.5699 2.86 13.9665 2.944 14.2652 3.112C14.5732 3.28 14.8159 3.54133 14.9932 3.896H15.2452V3.056H17.0092V7.9C17.0092 8.18 17.1352 8.32 17.3872 8.32H17.6532V10H16.4492C16.1319 10 15.8705 9.90667 15.6652 9.72C15.4692 9.53333 15.3712 9.29067 15.3712 8.992H15.1192ZM13.5512 8.516C14.0645 8.516 14.4752 8.348 14.7832 8.012C15.0912 7.66667 15.2452 7.2 15.2452 6.612V6.444C15.2452 5.856 15.0912 5.394 14.7832 5.058C14.4752 4.71267 14.0645 4.54 13.5512 4.54C13.0379 4.54 12.6272 4.71267 12.3192 5.058C12.0112 5.394 11.8572 5.856 11.8572 6.444V6.612C11.8572 7.2 12.0112 7.66667 12.3192 8.012C12.6272 8.348 13.0379 8.516 13.5512 8.516ZM19.7015 3.056H21.7595V0.199999H23.5235V3.056H26.0295V4.736H23.5235V7.9C23.5235 8.18 23.6495 8.32 23.9015 8.32H25.7775V10H22.8375C22.5201 10 22.2588 9.89733 22.0535 9.692C21.8575 9.48667 21.7595 9.22533 21.7595 8.908V4.736H19.7015V3.056ZM33.8737 3.056H35.6377V10H33.8737V8.992H33.6217C33.3137 9.79467 32.6511 10.196 31.6337 10.196C31.2884 10.196 30.9664 10.14 30.6677 10.028C30.3691 9.916 30.1077 9.74333 29.8837 9.51C29.6597 9.27667 29.4824 8.98733 29.3517 8.642C29.2304 8.28733 29.1697 7.872 29.1697 7.396V3.056H30.9337V7.032C30.9337 7.52667 31.0504 7.914 31.2837 8.194C31.5171 8.46467 31.8671 8.6 32.3337 8.6C32.8657 8.6 33.2531 8.432 33.4957 8.096C33.7477 7.75067 33.8737 7.284 33.8737 6.696V3.056ZM38.106 3.056H41.046V4.064H41.298C41.4287 3.68133 41.648 3.38733 41.956 3.182C42.2733 2.96733 42.6513 2.86 43.09 2.86C43.7807 2.86 44.336 3.07933 44.756 3.518C45.176 3.94733 45.386 4.60533 45.386 5.492V5.8L43.566 5.968V5.772C43.566 5.38933 43.468 5.086 43.272 4.862C43.076 4.62867 42.782 4.512 42.39 4.512C41.998 4.512 41.69 4.64733 41.466 4.918C41.242 5.18867 41.13 5.576 41.13 6.08V8.32H42.726V10H37.938V8.32H39.366V4.736H38.106V3.056ZM52.6983 8.992H52.4463C52.3716 9.15067 52.2783 9.30467 52.1663 9.454C52.0636 9.594 51.9236 9.72 51.7463 9.832C51.5783 9.944 51.3729 10.0327 51.1303 10.098C50.8969 10.1633 50.6123 10.196 50.2763 10.196C49.8469 10.196 49.4456 10.1213 49.0723 9.972C48.7083 9.81333 48.3863 9.58467 48.1063 9.286C47.8356 8.978 47.6209 8.60467 47.4623 8.166C47.3129 7.72733 47.2383 7.22333 47.2383 6.654V6.402C47.2383 5.842 47.3176 5.34267 47.4763 4.904C47.6443 4.46533 47.8683 4.09667 48.1483 3.798C48.4376 3.49 48.7689 3.25667 49.1423 3.098C49.5249 2.93933 49.9263 2.86 50.3463 2.86C50.9063 2.86 51.3496 2.96733 51.6763 3.182C52.0029 3.38733 52.2596 3.68133 52.4463 4.064H52.6983V0.199999H54.4623V10H52.6983V8.992ZM50.8503 8.516C51.4009 8.516 51.8443 8.34333 52.1803 7.998C52.5256 7.64333 52.6983 7.18133 52.6983 6.612V6.444C52.6983 5.87467 52.5256 5.41733 52.1803 5.072C51.8443 4.71733 51.4009 4.54 50.8503 4.54C50.2996 4.54 49.8516 4.71267 49.5063 5.058C49.1703 5.394 49.0023 5.856 49.0023 6.444V6.612C49.0023 7.2 49.1703 7.66667 49.5063 8.012C49.8516 8.348 50.2996 8.516 50.8503 8.516ZM61.4805 8.992C61.2939 9.43067 61.0325 9.74333 60.6965 9.93C60.3605 10.1073 59.9685 10.196 59.5205 10.196C59.1005 10.196 58.7039 10.1167 58.3305 9.958C57.9665 9.79933 57.6445 9.566 57.3645 9.258C57.0845 8.95 56.8605 8.57667 56.6925 8.138C56.5339 7.69933 56.4545 7.2 56.4545 6.64V6.416C56.4545 5.86533 56.5339 5.37067 56.6925 4.932C56.8512 4.49333 57.0659 4.12 57.3365 3.812C57.6072 3.504 57.9199 3.27067 58.2745 3.112C58.6385 2.944 59.0259 2.86 59.4365 2.86C59.9312 2.86 60.3279 2.944 60.6265 3.112C60.9345 3.28 61.1772 3.54133 61.3545 3.896H61.6065V3.056H63.3705V7.9C63.3705 8.18 63.4965 8.32 63.7485 8.32H64.0145V10H62.8105C62.4932 10 62.2319 9.90667 62.0265 9.72C61.8305 9.53333 61.7325 9.29067 61.7325 8.992H61.4805ZM59.9125 8.516C60.4259 8.516 60.8365 8.348 61.1445 8.012C61.4525 7.66667 61.6065 7.2 61.6065 6.612V6.444C61.6065 5.856 61.4525 5.394 61.1445 5.058C60.8365 4.71267 60.4259 4.54 59.9125 4.54C59.3992 4.54 58.9885 4.71267 58.6805 5.058C58.3725 5.394 58.2185 5.856 58.2185 6.444V6.612C58.2185 7.2 58.3725 7.66667 58.6805 8.012C58.9885 8.348 59.3992 8.516 59.9125 8.516ZM70.9628 3.056H72.7268V11.708C72.7268 12.0253 72.6241 12.2867 72.4188 12.492C72.2228 12.6973 71.9661 12.8 71.6488 12.8H67.5188V11.12H70.5848C70.8368 11.12 70.9628 10.98 70.9628 10.7V8.992H70.7108C70.4028 9.79467 69.7401 10.196 68.7228 10.196C68.3775 10.196 68.0555 10.14 67.7568 10.028C67.4581 9.916 67.1968 9.74333 66.9728 9.51C66.7488 9.27667 66.5715 8.98733 66.4408 8.642C66.3195 8.28733 66.2588 7.872 66.2588 7.396V3.056H68.0228V7.032C68.0228 7.52667 68.1395 7.914 68.3728 8.194C68.6061 8.46467 68.9561 8.6 69.4228 8.6C69.9548 8.6 70.3421 8.432 70.5848 8.096C70.8368 7.75067 70.9628 7.284 70.9628 6.696V3.056Z" fill="url(#paint0_linear)"/>
<defs>
<linearGradient id="paint0_linear" x1="-2.01165" y1="15" x2="25.1382" y2="-34.2203" gradientUnits="userSpaceOnUse">
<stop stop-color="#41D1FF"/>
<stop offset="1" stop-color="#786CEB"/>
</linearGradient>
</defs>
</svg>
