<svg width="31" height="31" viewBox="0 0 31 31" fill="none" xmlns="http://www.w3.org/2000/svg">
<rect width="31" height="31" rx="15.5" fill="#F2F2F2"/>
<path d="M21.0305 22.8111L17.5071 19.2877C16.5414 19.9196 15.3873 20.2901 14.1419 20.2901C10.7461 20.2901 7.99994 17.5378 7.99994 14.142C7.99994 10.7527 10.7458 8.00037 14.1419 8.00037C17.5319 8.00037 20.2833 10.7527 20.2833 14.142C20.2833 15.3274 19.9495 16.432 19.3721 17.3677L22.9206 20.9156C23.1084 21.0983 22.9509 21.5539 22.5739 21.9299L22.0455 22.4596C21.6685 22.8356 21.2129 22.9932 21.0305 22.8111ZM18.2424 14.142C18.2424 11.8759 16.4074 10.0413 14.1416 10.0413C11.8755 10.0413 10.035 11.8759 10.035 14.142C10.035 16.4081 11.8755 18.2486 14.1416 18.2486C16.4074 18.2486 18.2424 16.4085 18.2424 14.142Z" fill="url(#paint0_linear)"/>
<defs>
<linearGradient id="paint0_linear" x1="7.59217" y1="22.8868" x2="26.1862" y2="13.2477" gradientUnits="userSpaceOnUse">
<stop stop-color="#41D1FF"/>
<stop offset="1" stop-color="#786CEB"/>
</linearGradient>
</defs>
</svg>
