<svg width="31" height="31" xmlns="http://www.w3.org/2000/svg">
 <defs>
  <linearGradient y2="0.71931" x2="1.8785" y1="1.66615" x1="0.13321" id="paint0_linear">
   <stop stop-color="#41D1FF"/>
   <stop stop-color="#786CEB" offset="1"/>
  </linearGradient>
 </defs>
 <g>
  <title>background</title>
  <rect fill="none" id="canvas_background" height="602" width="802" y="-1" x="-1"/>
 </g>
 <g>
  <title>Layer 1</title>
  <rect id="svg_1" fill="#000" rx="15.5" height="31" width="31"/>
  <path stroke="null" id="svg_2" fill="url(#paint0_linear)" d="m14.86657,8.95897c0.19944,-0.6136 1.06749,-0.6136 1.26679,0l1.27312,3.91811c0.08913,0.27442 0.34496,0.46021 0.6334,0.46021l4.11975,0c0.64523,0 0.91344,0.8256 0.39146,1.20481l-3.33286,2.42148c-0.23342,0.16959 -0.33121,0.47027 -0.24194,0.74467l1.27298,3.91811c0.19944,0.61359 -0.50286,1.12388 -1.02485,0.74467l-3.33299,-2.42162c-0.23341,-0.16959 -0.54949,-0.16959 -0.7829,0l-3.33291,2.42162c-0.52195,0.37921 -1.22425,-0.13108 -1.02488,-0.74467l1.27306,-3.91811c0.08917,-0.2744 -0.00851,-0.57508 -0.24194,-0.74467l-3.33294,-2.42148c-0.52197,-0.37921 -0.25372,-1.20481 0.39147,-1.20481l4.11975,0c0.28853,0 0.54419,-0.1858 0.63346,-0.46021l1.27298,-3.91811z"/>
 </g>
</svg>