<svg width="23" height="23" viewBox="0 0 23 23" fill="none" xmlns="http://www.w3.org/2000/svg">
<circle cx="11.5" cy="11.5" r="11.5" fill="white"/>
<path d="M11.0394 6.25947C11.1844 5.81336 11.8155 5.81336 11.9604 6.25947L12.886 9.10807C12.9508 9.30758 13.1368 9.44266 13.3465 9.44266H16.3417C16.8108 9.44266 17.0058 10.0429 16.6263 10.3186L14.2032 12.0791C14.0335 12.2024 13.9624 12.421 14.0273 12.6205L14.9528 15.4691C15.0978 15.9152 14.5872 16.2862 14.2077 16.0105L11.7845 14.2499C11.6148 14.1266 11.385 14.1266 11.2153 14.2499L8.79216 16.0105C8.41268 16.2862 7.90209 15.9152 8.04704 15.4691L8.9726 12.6205C9.03743 12.421 8.96641 12.2024 8.7967 12.0791L6.37354 10.3186C5.99405 10.0429 6.18908 9.44266 6.65815 9.44266H9.65335C9.86312 9.44266 10.049 9.30758 10.1139 9.10807L11.0394 6.25947Z" fill="#41D1FF"/>
</svg>
