
<svg width="54" height="13" viewBox="0 0 54 13" fill="none" xmlns="http://www.w3.org/2000/svg">
<path d="M5.9972 3.196C5.9972 2.804 5.8432 2.46333 5.5352 2.174C5.23654 1.88467 4.81187 1.74 4.2612 1.74C3.79454 1.74 3.42587 1.838 3.1552 2.034C2.88454 2.22067 2.7492 2.47733 2.7492 2.804C2.7492 2.972 2.78187 3.126 2.8472 3.266C2.91254 3.39667 3.02454 3.518 3.1832 3.63C3.3512 3.73267 3.56587 3.826 3.8272 3.91C4.09787 3.994 4.43854 4.07333 4.8492 4.148C5.87587 4.33467 6.65987 4.64733 7.2012 5.086C7.74254 5.52467 8.0132 6.17333 8.0132 7.032V7.2C8.0132 7.65733 7.9292 8.07267 7.7612 8.446C7.60254 8.81 7.3692 9.12267 7.0612 9.384C6.7532 9.64533 6.37987 9.846 5.9412 9.986C5.50254 10.126 5.00787 10.196 4.4572 10.196C3.8132 10.196 3.24387 10.1073 2.7492 9.93C2.26387 9.74333 1.85787 9.49133 1.5312 9.174C1.20454 8.84733 0.957203 8.46933 0.789203 8.04C0.621203 7.60133 0.537203 7.12533 0.537203 6.612V6.192H2.3852V6.528C2.3852 7.116 2.5532 7.58733 2.8892 7.942C3.23454 8.28733 3.76654 8.46 4.4852 8.46C5.0452 8.46 5.46054 8.33867 5.7312 8.096C6.00187 7.85333 6.1372 7.564 6.1372 7.228C6.1372 7.06933 6.1092 6.92 6.0532 6.78C5.9972 6.63067 5.8992 6.5 5.7592 6.388C5.6192 6.26667 5.42787 6.15933 5.1852 6.066C4.94254 5.97267 4.63454 5.89333 4.2612 5.828C3.76654 5.744 3.31387 5.63667 2.9032 5.506C2.49254 5.366 2.1332 5.184 1.8252 4.96C1.52654 4.736 1.2932 4.456 1.1252 4.12C0.957203 3.784 0.873203 3.37333 0.873203 2.888V2.804C0.873203 2.40267 0.952537 2.034 1.1112 1.698C1.2792 1.35267 1.50787 1.054 1.7972 0.802C2.09587 0.55 2.45054 0.354 2.8612 0.213999C3.2812 0.0739993 3.74787 0.00399935 4.2612 0.00399935C4.83987 0.00399935 5.3532 0.0879994 5.8012 0.255999C6.2492 0.414666 6.62254 0.634 6.9212 0.913999C7.2292 1.194 7.45787 1.516 7.6072 1.88C7.76587 2.244 7.8452 2.62667 7.8452 3.028V3.532H5.9972V3.196ZM15.1015 3.056H16.8655V10H15.1015V8.992H14.8495C14.5415 9.79467 13.8788 10.196 12.8615 10.196C12.5161 10.196 12.1941 10.14 11.8955 10.028C11.5968 9.916 11.3355 9.74333 11.1115 9.51C10.8875 9.27667 10.7101 8.98733 10.5795 8.642C10.4581 8.28733 10.3975 7.872 10.3975 7.396V3.056H12.1615V7.032C12.1615 7.52667 12.2781 7.914 12.5115 8.194C12.7448 8.46467 13.0948 8.6 13.5615 8.6C14.0935 8.6 14.4808 8.432 14.7235 8.096C14.9755 7.75067 15.1015 7.284 15.1015 6.696V3.056ZM21.4337 10H19.6697V3.056H21.4337V4.092H21.6857C21.8444 3.7 22.1011 3.39667 22.4557 3.182C22.8104 2.96733 23.2257 2.86 23.7017 2.86C24.0377 2.86 24.3504 2.916 24.6397 3.028C24.9384 3.13067 25.1997 3.294 25.4237 3.518C25.6477 3.742 25.8204 4.02667 25.9417 4.372C26.0724 4.71733 26.1377 5.128 26.1377 5.604V10H24.3737V6.052C24.3737 5.55733 24.2524 5.17 24.0097 4.89C23.7764 4.60067 23.4357 4.456 22.9877 4.456C22.4651 4.456 22.0731 4.63333 21.8117 4.988C21.5597 5.33333 21.4337 5.8 21.4337 6.388V10ZM33.926 8.992H33.674C33.5993 9.15067 33.506 9.30467 33.394 9.454C33.2913 9.594 33.1513 9.72 32.974 9.832C32.806 9.944 32.6007 10.0327 32.358 10.098C32.1247 10.1633 31.84 10.196 31.504 10.196C31.0747 10.196 30.6733 10.1213 30.3 9.972C29.936 9.81333 29.614 9.58467 29.334 9.286C29.0633 8.978 28.8487 8.60467 28.69 8.166C28.5407 7.72733 28.466 7.22333 28.466 6.654V6.402C28.466 5.842 28.5453 5.34267 28.704 4.904C28.872 4.46533 29.096 4.09667 29.376 3.798C29.6653 3.49 29.9967 3.25667 30.37 3.098C30.7527 2.93933 31.154 2.86 31.574 2.86C32.134 2.86 32.5773 2.96733 32.904 3.182C33.2307 3.38733 33.4873 3.68133 33.674 4.064H33.926V0.199999H35.69V10H33.926V8.992ZM32.078 8.516C32.6287 8.516 33.072 8.34333 33.408 7.998C33.7533 7.64333 33.926 7.18133 33.926 6.612V6.444C33.926 5.87467 33.7533 5.41733 33.408 5.072C33.072 4.71733 32.6287 4.54 32.078 4.54C31.5273 4.54 31.0793 4.71267 30.734 5.058C30.398 5.394 30.23 5.856 30.23 6.444V6.612C30.23 7.2 30.398 7.66667 30.734 8.012C31.0793 8.348 31.5273 8.516 32.078 8.516ZM42.7083 8.992C42.5216 9.43067 42.2603 9.74333 41.9243 9.93C41.5883 10.1073 41.1963 10.196 40.7483 10.196C40.3283 10.196 39.9316 10.1167 39.5583 9.958C39.1943 9.79933 38.8723 9.566 38.5923 9.258C38.3123 8.95 38.0883 8.57667 37.9203 8.138C37.7616 7.69933 37.6823 7.2 37.6823 6.64V6.416C37.6823 5.86533 37.7616 5.37067 37.9203 4.932C38.0789 4.49333 38.2936 4.12 38.5643 3.812C38.8349 3.504 39.1476 3.27067 39.5023 3.112C39.8663 2.944 40.2536 2.86 40.6643 2.86C41.1589 2.86 41.5556 2.944 41.8543 3.112C42.1623 3.28 42.4049 3.54133 42.5823 3.896H42.8343V3.056H44.5983V7.9C44.5983 8.18 44.7243 8.32 44.9763 8.32H45.2423V10H44.0383C43.7209 10 43.4596 9.90667 43.2543 9.72C43.0583 9.53333 42.9603 9.29067 42.9603 8.992H42.7083ZM41.1403 8.516C41.6536 8.516 42.0643 8.348 42.3723 8.012C42.6803 7.66667 42.8343 7.2 42.8343 6.612V6.444C42.8343 5.856 42.6803 5.394 42.3723 5.058C42.0643 4.71267 41.6536 4.54 41.1403 4.54C40.6269 4.54 40.2163 4.71267 39.9083 5.058C39.6003 5.394 39.4463 5.856 39.4463 6.444V6.612C39.4463 7.2 39.6003 7.66667 39.9083 8.012C40.2163 8.348 40.6269 8.516 41.1403 8.516ZM52.1905 3.056H53.9545V11.708C53.9545 12.0253 53.8519 12.2867 53.6465 12.492C53.4505 12.6973 53.1939 12.8 52.8765 12.8H48.7465V11.12H51.8125C52.0645 11.12 52.1905 10.98 52.1905 10.7V8.992H51.9385C51.6305 9.79467 50.9679 10.196 49.9505 10.196C49.6052 10.196 49.2832 10.14 48.9845 10.028C48.6859 9.916 48.4245 9.74333 48.2005 9.51C47.9765 9.27667 47.7992 8.98733 47.6685 8.642C47.5472 8.28733 47.4865 7.872 47.4865 7.396V3.056H49.2505V7.032C49.2505 7.52667 49.3672 7.914 49.6005 8.194C49.8339 8.46467 50.1839 8.6 50.6505 8.6C51.1825 8.6 51.5699 8.432 51.8125 8.096C52.0645 7.75067 52.1905 7.284 52.1905 6.696V3.056Z" fill="url(#paint0_linear)"/>
<defs>
<linearGradient id="paint0_linear" x1="-2.01165" y1="15" x2="25.1382" y2="-34.2203" gradientUnits="userSpaceOnUse">
<stop stop-color="#41D1FF"/>
<stop offset="1" stop-color="#786CEB"/>
</linearGradient>
</defs>
</svg>

