<svg width="31" height="31" viewBox="0 0 31 31" fill="none" xmlns="http://www.w3.org/2000/svg">
<rect width="31" height="31" rx="15.5" fill="#F2F2F2"/>
<path fill-rule="evenodd" clip-rule="evenodd" d="M9.3173 9.3173C9.74037 8.89423 10.4263 8.89423 10.8494 9.3173L15.5 13.9679L20.1506 9.3173C20.5737 8.89423 21.2596 8.89423 21.6827 9.3173C22.1058 9.74037 22.1058 10.4263 21.6827 10.8494L17.0321 15.5L21.6827 20.1506C22.1058 20.5737 22.1058 21.2596 21.6827 21.6827C21.2596 22.1058 20.5737 22.1058 20.1506 21.6827L15.5 17.0321L10.8494 21.6827C10.4263 22.1058 9.74037 22.1058 9.3173 21.6827C8.89423 21.2596 8.89423 20.5737 9.3173 20.1506L13.9679 15.5L9.3173 10.8494C8.89423 10.4263 8.89423 9.74037 9.3173 9.3173Z" fill="#C3C3C3"/>
</svg>
